<?xml version="1.0" encoding="UTF-8" standalone="no"?><!DOCTYPE svg PUBLIC "-//W3C//DTD SVG 1.1//EN" "http://www.w3.org/Graphics/SVG/1.1/DTD/svg11.dtd"><svg width="100%" height="100%" viewBox="0 0 20834 20834" version="1.1" xmlns="http://www.w3.org/2000/svg" xmlns:xlink="http://www.w3.org/1999/xlink" xml:space="preserve" xmlns:serif="http://www.serif.com/" style="fill-rule:evenodd;clip-rule:evenodd;stroke-linejoin:round;stroke-miterlimit:2;"><path d="M20833,1200l0,18433c0,663 -537,1200 -1200,1200l-18433,0c-662,0 -1200,-537 -1200,-1200l0,-18433c0,-662 538,-1200 1200,-1200l18433,0c663,0 1200,538 1200,1200" style="fill:#5e81ac;"/><path d="M4739,5114c49.2,13 97.6,28.6 145,47l10,3l156,52l11,3l104,34l9,3l115,39l12,4l5650,1445l15,3l448,89l102,22l10,2l50,9l18,4l16,3c14.7,2.7 28,8 40,16c-4,14 -11.7,26 -23,36l-17,17c-17.3,16 -33.7,33 -49,51l-62,64c-18,16.7 -34.7,34.3 -50,53l-34,35c-29.2,27.9 -1261,1323 -1261,1323l-32,34c-51,59 -51,59 -77,63c-27.3,0 -54.3,-3 -81,-9c-56.7,-10 -2377,-330 -2377,-330l-95,-14c-33.3,-5.3 -67,-9.3 -101,-12l-11,-1l-10,0l-26,-6c-27.3,-6 -444,-61 -444,-61l-9,-1l-56,-9l-81,-12l-52,-8l-83,-11l-18,-3l-274,-37c-28.7,-3.3 -851,-115 -851,-115l-12,-2l-60,-8l0,8l9,2c12,2.7 23.3,6.3 34,11l13,4l26,10l74,31l43,17c0,0 736.3,286.7 783,306c31.3,13.3 63,25.7 95,37l120,46l23,9l209,82l0,16l-139,54l-360,140l-741,288l-88,34l-20,8l-47,18l4,4l28,-3l8,-2l104,-15c0,0 685.3,-103.3 714,-110l57,-9l165,-24l17,-2l497,-78l14,-2c0,0 322.7,-49.3 352,-56c20.7,-3.3 41.7,-6 63,-8c20,-2 39.7,-5.7 59,-11c30,-3 49,9 73,26l20,13l10,7l48,33c24,15.3 47.7,31.3 71,48l77,51c39.4,24.9 2583.3,1734 2628,1766l80,53c11,6 11,6 19,15l1,22l0,32l-1,109l-3,250l0,26l-51,3452l8,0l1,-7l20,-84l8,0l1,-16c4.7,-32.7 13,-64.3 25,-95c12,-35.3 21.7,-71.3 29,-108c3.3,-13.3 7.7,-26.3 13,-39c0,0 723.7,-2599.7 731,-2635c4,-18 9,-35.3 15,-52l9,-39c3.3,-18 8.3,-35.7 15,-53c7.3,-20.7 13.3,-41.7 18,-63l7,-25c6,-22.7 11.3,-45.3 16,-68c4,-17.3 9.7,-34.3 17,-51l17,-48l16,4l13,34l24,71l4,14l34,102l49,146l288,869l9,28c6.7,19.3 14,38.3 22,57c15.3,39.3 29,79.3 41,120l58,173c5,16 5,16 13,32l0,-135c0,-18.7 -1,-37.3 -3,-56c-3.2,-43.6 -3.9,-87.3 -2,-131l-38,-1755l0,-39c1,-9 1,-9 5,-13c22,-2 36,2 56,11l15,7l120,54l117,54l22,10l10,4l10,5l9,4c19,13 27,31 35,53l5,16l207,652c2,9 2,9 2,22l9,0l2,8c7.7,31.1 17.1,61.8 28,92l3,9l5,18c5,17 5,17 16,31l9,-114l1,-9c2,-22 2,-22 7,-27l1,-20l1,-13c0,0 43.5,-381.5 44,-405l4,-64l1,-10c0.7,-16.7 4.3,-32 11,-46c35,-5 62,11 93,26l52,24l76,34c90.7,39.2 728,330 728,330l64,29l9,4l24,11c12,4 20,5 33,4c8,-4 8,-4 16,-11l8,-7l9,-8l68,-56l7,-5l50,-39l7,-6l98,-79l35,-28l8,-6l6,-5c19.3,-7.3 38,-7 56,1l14,8l8,4l42,22c62.8,32.8 124.9,67.1 186,103l169,91c193.8,103.5 1693,920 1693,920c50.7,28.7 102,56.7 154,84l56,30l12,6l27,16c12,8 12,8 24,7c13,-6 20,-13 29,-24l5,-6l92,-112c0,0 507,-617 535,-649c22,-24.7 42.7,-49.7 62,-75l36,-44l6,-8l211,-258l6,-6c20,-25 20,-25 32,-35c9,1 9,1 17,4c-4,26 -9.3,51.3 -16,76l-4,13l-19,65c-6.7,24 -12,48.3 -16,73c-3.3,12.7 -7.7,25.3 -13,38c-6.7,20.7 -12.3,41 -17,61c-10,39.3 -20.7,78.3 -32,117c-12,37.3 -231.3,842.7 -238,878c-2,11.3 -5.3,22.3 -10,33c-20,52 -32,108 -46,163l-23,86l-14,51l-866,3155l-18,66l-28,104l-3,11l-5,21c-3.3,17.3 -10,33.3 -20,48c-13,6 -26,5 -40,6l-116,4l-9,0c-34,0.7 -68,2.7 -102,6c-106,12 -3813,137 -3853,137l-108,4c-54,3 -84,-11 -126,-45l-40,-31l-58,-42c-20,-13.3 -961.7,-682.3 -1015,-723c-53,-40 -53,-40 -107,-76c-55,-34 -105,-74 -157,-112c-34,-25.3 -68.3,-49 -103,-71c-14.7,-9.3 -29,-19.3 -43,-30c-12.7,-7.3 -26,-13.7 -40,-19l-13,286l-1,12l0,10c-1.3,25.3 -4,51 -8,77c-7.4,53.4 -11.4,107.1 -12,161l-8,199c-1.3,33.3 -207,3489 -207,3489l-1,10l-2,51l0,9l-1,20l-2,54c-0.7,35.3 -3.7,70.3 -9,105c-4,29.3 -6.3,59 -7,89l-1,25l-1,16c-2,12 -2,12 -10,24c-10,1.3 -20.3,2 -31,2l-4597,0l-22,-2c-9,-12 -9,-15 -9,-29l0,-35c0.7,-58.7 2.7,-117.7 6,-177l2,-38l4,-92l3,-21c2.7,-16.7 207,-3461 207,-3461c2,-38.7 5.3,-77 10,-115c9,-72 8,-145 11,-217l1,-45l1,-14l0,-13l1,-12c0,-8.7 1.7,-17.3 5,-26l1,-27c5,-67 5,-67 20,-88c12,-9 21,-8 35,-8l36,0l71,1l43,0l225,2l9,1c27.3,0 54.7,1.3 82,4c82,6 1586,46 1586,46c28,2 55.7,3.3 83,4l70,1l53,1l304,6l32,0l187,2c-62,-19 -62,-19 -126,-34c-11,-3 -11,-3 -24,-9c-16.7,-6.7 -34,-12 -52,-16l-10,-3l-230,-60l-12,-3l-271,-72c0,0 -1703.7,-444.9 -1820,-477l-289,-76l-92,-23l-10,-2c-30,-8 -61,-17 -80,-43l-8,-11l-9,-12l-16,-20l-112,-145l-147,-189l-3239,-4172l-93,-121l-58,-74c-34.7,-41.3 -67.3,-84.3 -98,-129l11,-23l6,-13l27,-42l32,-50l14,-24l7,-11c577.2,-955.2 2775,-4451 2775,-4451l38,-60l17,-26l8,-13l133,-214l8,-13c9,-12 15,-19 30,-17" style="fill:#fefefe;fill-rule:nonzero;"/><path d="M11858,1475c28,2 47,12 71,25l178,94l35,19l17,9l65,34l11,6l19,10c18,9.3 35.7,19.7 53,31c38.7,22 78,42.7 118,62c44.7,21.3 89,44.3 133,69c26.7,14.7 53,28.7 79,42c23.3,11.3 1901.3,1014 1976,1052l58,31c33.3,16.7 65.3,34.7 96,54l-21,54l-9,0l-3,11l-13,34l-9,1l-2,7l-6,20c-4,10 -9.7,19 -17,27l-14,28c-14,28.7 -29,56.7 -45,84c-36.7,64.7 -71.7,130 -105,196c-8,16 -17,31.3 -27,46l-12,25c-13.3,26 -1677,3088 -1677,3088l-4,8l-12,22l-7,13l-9,23l-8,0l-4,11c-7.3,22 -1560.6,2880.7 -1595,2947l-7,13l-29,49l-22,44l-29,53l-13,24l-49,91l-26,48l-6,12l-6,11c-6,10 -6,10 -19,18l-21,-8l-12,-5l-8,-4l0,-8l-9,-1c-15.3,-4.7 -30.3,-10.7 -45,-18l-9,-5c-24,-10.7 -48.3,-22.7 -73,-36l-52,-23l0,-9l-9,-1l-30,-10l-10,-5l-22,-10c-23.3,-11.3 -47,-23.3 -71,-36c-46,-24 -986,-478 -1032,-504c-7.3,-4 -16,-7 -26,-9l0,-8l-8,-1c-19.3,-5.2 -37.8,-12.9 -55,-23l-138,-68l-10,-4l-10,-5l-9,-4l-20,-8l0,-8l-9,-1c-13,-3 -21,-9 -32,-16c6,-18 14,-29 28,-42l11,-11c18,-16 34,-19 58,-19l1274,22c38,2 38,2 73,-12c6.7,-9.3 12.7,-19 18,-29l26,-42l27,-45l5,-9l30,-50l4,-8c34,-55 34,-55 53,-81c17.3,-23.3 1353,-2153 1353,-2153c13.3,-18 25.3,-37 36,-57l32,-52c7.3,-10 14,-21 20,-33c6,-12.7 13.7,-25 23,-37c14,-18.7 26.3,-38.3 37,-59c38,-66 38,-66 58,-87c12,-17 14,-34 17,-54l-6,-2l-41,-11l-16,-4l-12,-4l0,-8l-12,-1c-28.7,-6 -56.7,-14.3 -84,-25c-12.7,-4.7 -25.7,-8.7 -39,-12l-35,-13l-48,-17l-1663,-568c-14.7,-5.3 -29.3,-10 -44,-14l0,-9l-10,-1c-29.3,-5.3 -58,-13.7 -86,-25l-29,-9c-16,-4.7 -101,-34 -101,-34l-49,-18c-21.3,-8.7 -43.7,-15.7 -67,-21l0,-8l-12,-1c-17,-3 -42,-7 -54,-20c-4,-26 8,-47 19,-70l53,-110l4,-9l11,-24l6,-12l24,-55c10,-24.7 21.3,-49 34,-73c14.7,-26.7 26.7,-53.7 36,-81c12.7,-32 27.7,-63.3 45,-94c24.8,-46.4 1446,-3148 1446,-3148l11,-22c7.3,-12 13.3,-24.7 18,-38l23,-50c13.3,-26 25.3,-52.3 36,-79c17.3,-42.1 36.4,-83.4 57,-124c5.3,-12.7 11.3,-24.7 18,-36m3359,2846c12,2 23,7 33,15l262,197l136,100l99,74l44,33l1211,902l147,108c8,7.3 15.3,15.7 22,25c-27.1,44.9 -56.1,88.6 -87,131l-6,8l-93,138l-2972,4435l-9,0l-3,10c-18,43 -51,82 -78,120l-35,50c-18,-3 -28,-8 -42,-18l-13,-8l-13,-9l-27,-18l-13,-10l-55,-34l-19,-13c0,0 -955.7,-616.3 -995,-643l-103,-66c-46,-28.7 -92,-58.3 -138,-89l-137,-88l-210,-135c-26,-16 -26,-16 -31,-33c6.7,-20.7 16.3,-40.7 29,-60l186,-306l4,-7l2649,-4391c39,-68 39,-68 62,-100c16.7,-25.3 31.7,-51 45,-77c26.4,-48.1 54.8,-95.2 85,-141l15,-25c15.3,-26 32,-51 50,-75m-7279,-3446c27.3,2 54.3,7.7 81,17l28,6c11.3,1.3 22,4 32,8c27.3,8.7 54.3,15.7 81,21c30.7,6.7 60.3,14.7 89,24c18,6 35.7,10.7 53,14c24.7,4.7 48.7,11.3 72,20l45,11c20.7,4.7 41.7,10.3 63,17c30,10.7 60.7,18.7 92,24c22.7,4.7 1503,397 1503,397l57,15c34,8.7 294.7,80.3 392,103l10,3l20,5c19.3,4.7 38,10 56,16l38,10l14,3l11,3c-2,18 -7,30 -17,45l-10,26c-12.6,35.9 -26.6,71.2 -42,106l-26,62l-22,52l-9,23l-6,16l-26,66l-11,22c-7.3,14 -13.3,28.7 -18,44l-9,24c-15.3,40.7 -1188.3,2891 -1205,2925c-16.7,33.8 -30.4,68.9 -41,105l-8,0l-1,11c-2.7,13.3 -7,25.7 -13,37c-11.3,28 -22,56.7 -32,86l-8,0l-3,15c-5.3,22 -13.3,43 -24,63c-6,14 -11.3,28 -16,42c-5.3,14 -12,26.7 -20,38l-24,0c-9,0 -9,0 -21,-4l-19,-1l-10,-1l-22,-1l-11,0l-10,-1c-8,0 -8,0 -16,-4l-31,-4l-21,-1l-11,-1l-2061,-595l-165,-66l-112,-44l-9,-4l-72,-29l-14,-5l-12,-5c-9,-5 -9,-5 -13,-17l9,-25l6,-14l6,-15c83.8,-207.4 1218.7,-3085 1228,-3105c14.7,-34 28.3,-68.7 41,-104l52,-132l70,-178c61,-158 72,-169 72,-169m3204,15958l144,63l31,13l3570,340l24,0c10,1 10,1 22,5l29,1l8,1l88,2c-4.5,139.7 -140,2634 -140,2634l-8,148l-1,14l-5,33l-3216,0c-13.3,-86 -267.9,-1954.7 -288,-2062c-12,12 -12,27 -14,43l-2,11l-13,88c-2.7,18 -6,35.7 -10,53c-4.7,20.7 -272,1655 -282,1703c-10.7,56 -20.3,112.3 -29,169l-362,0c0,-87 0,-87 6,-115l1,-9c1.3,-10.7 4.3,-21 9,-31l3,-23l435,-3081Zm6637,-9878c10,4 15,8 23,16l9,7l34,31l11,10l21,18l31,30c34.4,32.7 69.7,64.4 106,95c0,0 1074.7,967 1094,985l40,36c13.3,11.3 25.3,23 36,35l37,32c-2,16 -6,24 -17,35c-14,16 -27.7,33 -41,51l-5,7l-6,7l-35,46l-2459,3146c-65.1,86 -131.4,171 -199,255l-46,61c-17,-2 -28,-11 -42,-20l-7,-5l-102,-74l-1400,-996l-58,-42c2,-21 7,-31 21,-47l38,-47c23.3,-31.3 47.3,-61.3 72,-90c25.3,-30 49.3,-60.7 72,-92l2602,-3290c20,-26.7 41,-53 63,-79c29.3,-34.7 57,-71 83,-109c11,-13 24,-12 24,-12" style="fill:#fefefe;fill-rule:nonzero;"/></svg>