<?xml version="1.0" encoding="UTF-8"?>
<svg version="1.1" xmlns="http://www.w3.org/2000/svg" width="768" height="768">
<path d="M0 0 C253.44 0 506.88 0 768 0 C768 253.44 768 506.88 768 768 C514.56 768 261.12 768 0 768 C0 514.56 0 261.12 0 0 Z " fill="#FDFDFD" transform="translate(0,0)"/>
<path d="M0 0 C0 0.66 0 1.32 0 2 C0.928125 2.268125 1.85625 2.53625 2.8125 2.8125 C5.98148427 3.99310198 6.76686344 4.67753797 9 7 C10.5778125 7.7734375 10.5778125 7.7734375 12.1875 8.5625 C24.02901369 15.13279135 30.27151665 31.07746697 35 43 C35.55729266 44.27312548 36.11884856 45.54440728 36.6875 46.8125 C38.06643885 50.16135149 39.00569715 53.51994002 40 57 C40.515625 58.11375 41.03125 59.2275 41.5625 60.375 C43.01247842 64.03146731 43.49966555 67.00742152 43.7890625 70.88671875 C44.0005399 73.00540898 44.43541307 74.94990155 45 77 C45.66 77 46.32 77 47 77 C48.485 83.93 48.485 83.93 50 91 C50.66 91 51.32 91 52 91 C52.26554688 92.13179688 52.53109375 93.26359375 52.8046875 94.4296875 C53.1610844 95.91154832 53.51787576 97.3933143 53.875 98.875 C54.04902344 99.62136719 54.22304688 100.36773437 54.40234375 101.13671875 C55.38923879 105.48883671 55.38923879 105.48883671 58 109 C58.61056087 111.02213278 59.14363995 113.06827978 59.625 115.125 C59.88539063 116.22070312 60.14578125 117.31640625 60.4140625 118.4453125 C60.60742188 119.28835938 60.80078125 120.13140625 61 121 C61.66 121 62.32 121 63 121 C65.07310585 124.10965878 65.67246462 126.26802515 66.5 129.875 C67.17836472 132.81703828 67.82175314 135.57821743 68.99780273 138.36108398 C70.01659679 141.04370152 70.46600546 143.38861718 70.81640625 146.23046875 C70.94080078 147.19791016 71.06519531 148.16535156 71.19335938 149.16210938 C71.37608398 150.65967773 71.37608398 150.65967773 71.5625 152.1875 C71.81062261 154.18138782 72.06177362 156.17490185 72.31640625 158.16796875 C72.47798218 159.48704224 72.47798218 159.48704224 72.64282227 160.83276367 C72.89688741 163.04028683 72.89688741 163.04028683 74 165 C74.2393442 169.59613388 74.22860182 174.19669497 74.24023438 178.79833984 C74.24975984 181.06778244 74.28068614 183.33624608 74.3125 185.60546875 C74.38614712 195.74036621 73.24258036 205.12394011 71 215 C70.72422119 216.23387451 70.72422119 216.23387451 70.44287109 217.49267578 C70.01122445 219.33535424 69.53880871 221.16835792 69.0625 223 C68.72510497 224.31246005 68.38787082 225.62496147 68.05078125 226.9375 C67.8801416 227.59492188 67.70950195 228.25234375 67.53369141 228.9296875 C66.58386587 232.61428062 65.66936314 236.30771234 64.75 240 C64.41160477 241.35420327 64.07307726 242.70837349 63.734375 244.0625 C63.49203125 245.031875 63.2496875 246.00125 63 247 C62.34 247 61.68 247 61 247 C60.80664062 247.81984375 60.61328125 248.6396875 60.4140625 249.484375 C60.02347656 251.10085938 60.02347656 251.10085938 59.625 252.75 C59.36976563 253.81734375 59.11453125 254.8846875 58.8515625 255.984375 C58.12002626 258.57495288 57.23682132 260.63368482 56 263 C55.7525 264.051875 55.505 265.10375 55.25 266.1875 C54.15450505 270.28903309 51.85710972 273.30589917 49.44140625 276.74609375 C48.10423557 278.83700833 47.27773931 280.65746782 46.5 283 C45.13276451 287.10170646 42.91387307 290.32852782 40.40234375 293.82421875 C38.89592475 296.16147608 37.96117499 298.39276419 37 301 C36.21993206 303.0669147 35.42781974 305.12931565 34.625 307.1875 C34.22539063 308.23292969 33.82578125 309.27835938 33.4140625 310.35546875 C31.8518692 313.27702915 30.97678981 313.79335886 28 315 C26.91257306 317.21433941 26.91257306 317.21433941 26 320 C23.73939414 325.51819686 21.03304798 329.19832188 16.68359375 333.2578125 C14.14240113 335.88744569 12.65593271 338.75437189 11 342 C10.34 342 9.68 342 9 342 C8.72929688 342.72058594 8.45859375 343.44117188 8.1796875 344.18359375 C7.01212727 346.97104715 5.67236512 349.4688595 4.125 352.0625 C3.63257813 352.89910156 3.14015625 353.73570312 2.6328125 354.59765625 C0.95511224 357.066043 -0.75667262 359.03368268 -3 361 C-3.66 361 -4.32 361 -5 361 C-5 362.32 -5 363.64 -5 365 C-6.31034988 366.35592727 -7.647622 367.68598733 -9 369 C-10.15473445 371.04462154 -11.23687038 373.13163807 -12.25 375.25 C-13.03117188 376.86648438 -13.03117188 376.86648438 -13.828125 378.515625 C-14.21484375 379.33546875 -14.6015625 380.1553125 -15 381 C-15.66 381 -16.32 381 -17 381 C-17 381.66 -17 382.32 -17 383 C-17.66 383 -18.32 383 -19 383 C-19.28875 383.5775 -19.5775 384.155 -19.875 384.75 C-20.91666667 386.83333333 -21.95833333 388.91666667 -23 391 C-23.66 391 -24.32 391 -25 391 C-25.20625 391.66 -25.4125 392.32 -25.625 393 C-27.20765917 396.45307455 -29.29465382 399.09361312 -31.6171875 402.078125 C-33.19224247 404.26718445 -34.0265294 406.49678987 -35 409 C-35.9590625 409.928125 -35.9590625 409.928125 -36.9375 410.875 C-39.0701844 413.0723112 -39.97303588 415.03525836 -41.078125 417.859375 C-42.68531788 421.59133134 -44.72655912 425.09391881 -46.6953125 428.64453125 C-47.49118311 430.08138747 -48.26542994 431.53085989 -49 433 C-49.66 433 -50.32 433 -51 433 C-51.28617188 433.57234375 -51.57234375 434.1446875 -51.8671875 434.734375 C-53.578125 438.15625 -55.2890625 441.578125 -57 445 C-57.66 445 -58.32 445 -59 445 C-59.268125 445.70125 -59.53625 446.4025 -59.8125 447.125 C-61.98106542 452.37521102 -64.41079157 456.60032515 -68 461 C-68.37125 461.7425 -68.7425 462.485 -69.125 463.25 C-70 465 -70 465 -72 466 C-73.35459632 468.99531199 -74.50437902 472.04901124 -75.68359375 475.1171875 C-76.92634263 477.83869691 -77.92473294 478.97453935 -80 481 C-80.67286844 482.66417255 -81.33884589 484.33113887 -82 486 C-83.21857571 487.84803865 -84.49361818 489.65965739 -85.8125 491.4375 C-86.52277344 492.39914062 -87.23304688 493.36078125 -87.96484375 494.3515625 C-89.54616248 496.40940146 -91.15569573 498.37250891 -92.875 500.3125 C-95.13901833 503.1758173 -95.88009175 505.56561469 -97 509 C-99.0625 511.25 -99.0625 511.25 -101 513 C-102.32096174 515.64192348 -102.24756974 518.16294853 -102.44262695 521.06958008 C-103.12175084 530.1200195 -104.60532554 536.18554385 -111 543 C-111.78375 543.9075 -112.5675 544.815 -113.375 545.75 C-125.97781694 556.55241452 -139.18612313 557.45213161 -155.21305847 557.38095093 C-156.92482164 557.38441374 -158.63658257 557.38918247 -160.3483389 557.39513266 C-165.01997434 557.40758626 -169.6914245 557.40149816 -174.36306036 557.39217401 C-179.4135258 557.38536077 -184.46396033 557.39587588 -189.51441956 557.40411377 C-199.39473733 557.41742822 -209.2749866 557.41458382 -219.15530702 557.40587585 C-227.1860003 557.39909185 -235.21667443 557.39818568 -243.24736977 557.4014473 C-244.9638962 557.40213684 -244.9638962 557.40213684 -246.71509993 557.40284032 C-249.04002068 557.40379953 -251.36494143 557.40477217 -253.68986217 557.4057581 C-275.47089461 557.41430499 -297.25188911 557.40448826 -319.03291533 557.388357 C-337.71524052 557.37494907 -356.3975098 557.3772872 -375.07983398 557.39111328 C-396.78929401 557.40717217 -418.49872084 557.41348675 -440.20818597 557.40427649 C-442.52348315 557.40332086 -444.83878034 557.40237775 -447.15407753 557.4014473 C-448.86272706 557.40075306 -448.86272706 557.40075306 -450.60589477 557.40004479 C-458.62691656 557.39745624 -466.64791726 557.40182289 -474.66893578 557.40888596 C-484.44363448 557.41730433 -494.21826092 557.41501344 -503.99295136 557.39904372 C-508.97850201 557.39116644 -513.96393223 557.3880603 -518.94948196 557.39799118 C-523.5157977 557.40694938 -528.08188167 557.40198666 -532.64817647 557.38605852 C-534.29734693 557.38271557 -535.94653708 557.38439384 -537.5956948 557.39168589 C-546.12753315 557.42650868 -553.95131421 557.24246769 -562 554 C-562 553.34 -562 552.68 -562 552 C-562.99 551.835 -563.98 551.67 -565 551.5 C-570.2124431 550.04264346 -573.6691555 546.10262554 -577 542 C-577.495 540.515 -577.495 540.515 -578 539 C-578.99 538.34 -579.98 537.68 -581 537 C-583.33977705 531.09190342 -583.32585331 525.31238468 -583.37890625 519.01953125 C-583.39590073 517.97028976 -583.4128952 516.92104828 -583.43040466 515.8400116 C-583.48329481 512.49756844 -583.52366863 509.15513358 -583.5625 505.8125 C-583.60675214 502.48778583 -583.65379647 499.16315655 -583.70530701 495.83854675 C-583.73668952 493.77604091 -583.76374394 491.71346258 -583.78553772 489.65083313 C-583.79172986 475.52433962 -583.79172986 475.52433962 -588.015625 462.2890625 C-589.83553296 458.0570543 -590.33566191 453.5314851 -591 449 C-591.20625 447.783125 -591.4125 446.56625 -591.625 445.3125 C-591.74875 444.549375 -591.8725 443.78625 -592 443 C-592.66 443 -593.32 443 -594 443 C-598.87795568 431.43172565 -598.87795568 431.43172565 -600.5 426.875 C-601.99051386 422.77393297 -603.98641378 418.96099321 -606.01171875 415.1015625 C-607 413 -607 413 -607 411 C-607.66 411 -608.32 411 -609 411 C-609.4125 410.030625 -609.825 409.06125 -610.25 408.0625 C-610.65992188 407.11117187 -610.65992188 407.11117187 -611.078125 406.140625 C-611.71867656 404.65324255 -612.35369976 403.16347199 -612.984375 401.671875 C-614.67648067 397.74098337 -616.31036551 394.36204311 -619 391 C-619 390.34 -619 389.68 -619 389 C-619.62261719 388.75378906 -620.24523437 388.50757813 -620.88671875 388.25390625 C-623.47082114 386.72064032 -623.81437272 385.72537274 -624.8125 382.9375 C-626.68379554 378.30026564 -629.30462526 374.91601242 -632.46484375 371.078125 C-634.33132872 368.55148378 -635.05754306 365.9723642 -636 363 C-636.639375 362.690625 -637.27875 362.38125 -637.9375 362.0625 C-640.71093897 360.63375871 -641.08107484 358.76098695 -642.140625 355.94140625 C-643.08970158 353.79735597 -644.27559287 352.11800072 -645.6875 350.25 C-648 347 -648 347 -648 344 C-648.66 344 -649.32 344 -650 344 C-655.26373566 337.17725983 -658.58545796 328.74162221 -662.16796875 320.953125 C-664.13465011 316.68053794 -666.16537582 312.46059232 -668.5 308.375 C-670.30691762 304.30943536 -671.23665478 300.25283449 -672.24609375 295.9296875 C-672.86045384 293.54227781 -673.57165982 291.49059337 -674.5625 289.25 C-676.33994749 284.82005395 -676.59797947 280.26758912 -677.09228516 275.55224609 C-677.80231698 269.44205115 -679.27974006 263.69878595 -681.06005859 257.81884766 C-684.53149751 246.2573522 -686.43681952 234.69570776 -687.5 222.6875 C-688.40293759 213.17108503 -689.52517807 203.84413338 -691.44921875 194.48046875 C-692.06966091 190.55980234 -692.09156535 186.96347161 -692 183 C-688.48114521 183.69877968 -685.61609855 185.10779463 -682.4375 186.75 C-672.70999469 191.66681178 -663.71599014 195.77117479 -653 198 C-651.15341797 198.41958984 -651.15341797 198.41958984 -649.26953125 198.84765625 C-623.95208848 204.25229526 -598.74388264 201.04825609 -575.1875 190.70703125 C-571.81205766 189.24772918 -568.68166191 188.39530665 -565 188 C-565 187.34 -565 186.68 -565 186 C-564.38511719 185.67386719 -563.77023437 185.34773437 -563.13671875 185.01171875 C-562.32847656 184.57472656 -561.52023437 184.13773438 -560.6875 183.6875 C-559.48673828 183.04361328 -559.48673828 183.04361328 -558.26171875 182.38671875 C-556.12902479 181.07910846 -554.69287729 179.81810383 -553 178 C-551.84684608 176.92284941 -550.67982427 175.86037024 -549.5 174.8125 C-548.9121875 174.28269531 -548.324375 173.75289062 -547.71875 173.20703125 C-546 172 -546 172 -543 172 C-541.31183067 173.64488294 -539.64646685 175.31337542 -538 177 C-535.83379456 178.29519995 -535.83379456 178.29519995 -534 179 C-534 179.66 -534 180.32 -534 181 C-533.42072754 181.28447998 -532.84145508 181.56895996 -532.24462891 181.86206055 C-530.15379146 182.92203372 -528.12193547 184.04598093 -526.0859375 185.20703125 C-515.31150812 191.22080055 -505.06438881 195.43243014 -493 198 C-492.28021973 198.16081055 -491.56043945 198.32162109 -490.81884766 198.48730469 C-459.76390788 205.25202321 -429.48687966 199.45725007 -402 184 C-401.25492187 183.42636719 -400.50984375 182.85273438 -399.7421875 182.26171875 C-398 181 -398 181 -395 181 C-395 180.34 -395 179.68 -395 179 C-393.20703125 177.421875 -393.20703125 177.421875 -390.8125 175.75 C-390.03519531 175.18796875 -389.25789063 174.6259375 -388.45703125 174.046875 C-386 173 -386 173 -383.44921875 173.6484375 C-381.13484747 174.92558656 -379.0844698 176.25281181 -377 177.875 C-376.30777344 178.40609375 -375.61554688 178.9371875 -374.90234375 179.484375 C-373.42552732 180.66097618 -371.98578922 181.88418376 -370.5625 183.125 C-367.61830163 185.27929149 -364.64463819 186.59295652 -361.28125 187.97265625 C-359 189 -359 189 -356.7578125 190.4296875 C-353.11218775 192.50552482 -349.3522166 193.76121973 -345.375 195.0625 C-344.57755371 195.32635498 -343.78010742 195.59020996 -342.95849609 195.86206055 C-337.74308919 197.54579537 -332.59547364 198.87400151 -327.1640625 199.67578125 C-325 200 -325 200 -323.21166992 200.50976562 C-300.05078772 205.64356091 -272.98597905 198.96271593 -252 189 C-251.14792969 188.45601562 -250.29585938 187.91203125 -249.41796875 187.3515625 C-247 186 -247 186 -243 186 C-243 185.34 -243 184.68 -243 184 C-241.38260845 182.70668139 -239.70326111 181.49043466 -238 180.3125 C-231.92147143 175.99971366 -226.30579156 171.42401685 -221.125 166.0625 C-219 164 -219 164 -217 164 C-216.7525 163.29875 -216.505 162.5975 -216.25 161.875 C-212.35138128 152.90817694 -206.24571566 147.61944621 -197.40625 143.859375 C-195 143 -195 143 -191.6484375 142.22265625 C-187.28151577 140.75922316 -184.58875116 138.63193138 -181.125 135.6875 C-175.96279611 131.48178629 -170.98625867 127.95571522 -165 125 C-163.865625 124.38640625 -162.73125 123.7728125 -161.5625 123.140625 C-151.40699141 117.72821516 -141.04427264 114.16922606 -130 111 C-130 110.67 -130 110.34 -130 110 C-130.60021973 109.96036133 -131.20043945 109.92072266 -131.81884766 109.87988281 C-155.2081976 108.28685465 -178.39211345 105.81216213 -201.25 100.5 C-202.48065186 100.21552002 -203.71130371 99.93104004 -204.97924805 99.63793945 C-211.93669924 97.9524927 -218.42773999 95.82092262 -225 93 C-227.22721507 92.14075746 -229.4561029 91.28582286 -231.6875 90.4375 C-232.77933594 90.01339844 -233.87117188 89.58929688 -234.99609375 89.15234375 C-236.76989404 88.4718872 -238.55137749 87.81009128 -240.34765625 87.19140625 C-242.25 86.5 -242.25 86.5 -245 85 C-245.9375 82.3125 -245.9375 82.3125 -246 80 C-246.845625 79.814375 -247.69125 79.62875 -248.5625 79.4375 C-255.57039773 76.50692458 -260.8928479 69.86911726 -264 63 C-267.09205947 48.42892236 -264.73520475 38.30663486 -257 26 C-250.29804242 15.83764392 -243.17716876 12.87069993 -231.43505859 10.43664551 C-223.37292501 8.99097417 -215.15672012 8.51129071 -207 7.875 C-203.20790131 7.56500689 -199.41641746 7.24789155 -195.625 6.9296875 C-194.25663498 6.8167762 -194.25663498 6.8167762 -192.86062622 6.70158386 C-186.04369627 6.12626763 -179.27407798 5.34636436 -172.49560547 4.42651367 C-167.57081351 3.82561889 -162.64900695 3.52255278 -157.6953125 3.24609375 C-155.03233053 3.16784621 -155.03233053 3.16784621 -153 2 C-150.66982629 1.69052179 -148.33262776 1.43354518 -145.99365234 1.19970703 C-144.90987305 1.08967346 -144.90987305 1.08967346 -143.80419922 0.97741699 C-142.22858441 0.81798635 -140.65278274 0.66039451 -139.07682419 0.50439835 C-136.55773168 0.25502026 -134.03915747 0.00089191 -131.5206604 -0.25442505 C-126.13921209 -0.7990208 -120.75712344 -1.33712473 -115.375 -1.875 C-108.36159193 -2.57691458 -101.34854783 -3.28234684 -94.3359375 -3.9921875 C-93.48576553 -4.07801275 -92.63559357 -4.16383801 -91.75965881 -4.25226402 C-80.58271701 -5.38354084 -69.42438698 -6.59689579 -58.2906189 -8.10482788 C-38.09551673 -10.80003118 -18.68956208 -8.32162983 0 0 Z " fill="#333333" transform="translate(693,211)"/>
<path d="M0 0 C3.32208923 3.05824099 5.70933153 5.99848413 8 9.875 C8.4846875 10.46410156 8.969375 11.05320312 9.46875 11.66015625 C11.33142995 14.35438974 12.15846159 16.93837387 13.125 20.0625 C14.03863015 23.75961356 14.03863015 23.75961356 16 26.875 C16.10005192 28.2625332 16.13105975 29.65511625 16.13422108 31.04624844 C16.13867892 31.95123874 16.14313676 32.85622905 16.14772969 33.7886433 C16.14754533 34.79444677 16.14736097 35.80025023 16.14717102 36.83653259 C16.15084771 37.89613853 16.1545244 38.95574446 16.1583125 40.04745966 C16.1693993 43.62791734 16.17320166 47.20834605 16.17700195 50.78881836 C16.18326301 53.34413751 16.18990948 55.89945573 16.19691467 58.45477295 C16.21618397 66.14746381 16.22675133 73.8401496 16.23564246 81.53285846 C16.24002319 85.15523845 16.24539077 88.77761697 16.25063133 92.3999958 C16.26765066 104.44317159 16.28214275 116.48634646 16.28938007 128.52953243 C16.29129001 131.65713947 16.29321032 134.7847465 16.29516602 137.91235352 C16.29564976 138.68971537 16.2961335 139.46707721 16.2966319 140.26799548 C16.30492424 152.84831564 16.33024451 165.42854047 16.36274669 178.00881904 C16.39584418 190.92494264 16.41383149 203.84101786 16.41702431 216.75718409 C16.41918754 224.00889238 16.427908 231.26046189 16.45348549 238.51212883 C16.47750733 245.33863903 16.48100119 252.16489606 16.47072411 258.99143982 C16.47022846 261.49477531 16.47655721 263.99812305 16.49028015 266.50142097 C16.50799366 269.9247838 16.50089439 273.3472508 16.48774719 276.77061462 C16.49871644 277.7563416 16.50968568 278.74206857 16.52098733 279.75766605 C16.43268725 289.31181129 13.59682055 296.95638332 7 303.875 C6.278125 304.638125 5.55625 305.40125 4.8125 306.1875 C3.884375 307.074375 2.95625 307.96125 2 308.875 C1.34773438 309.5453125 0.69546875 310.215625 0.0234375 310.90625 C-9.97811893 320.67365628 -22.31656377 326.33947813 -36 328.875 C-37.13115234 329.14570312 -37.13115234 329.14570312 -38.28515625 329.421875 C-56.56862163 332.47350375 -75.30673378 328.54012299 -91 318.875 C-101.68759432 310.65790487 -110.90289684 299.39662035 -113 285.875 C-113.66 285.875 -114.32 285.875 -115 285.875 C-115.04577127 252.72727854 -115.08101607 219.57956528 -115.10213066 186.43181943 C-115.10463209 182.51899936 -115.10722073 178.60617935 -115.10986328 174.69335938 C-115.1103879 173.91438278 -115.11091252 173.13540619 -115.11145304 172.33282425 C-115.12015718 159.71744158 -115.13592722 147.10207714 -115.15430559 134.48670529 C-115.17300437 121.54351542 -115.18411668 108.60033509 -115.18817699 95.65713227 C-115.19092209 87.66959531 -115.19959436 79.68210984 -115.21583293 71.69458874 C-115.22764811 65.57119028 -115.22891139 59.44783113 -115.22621536 53.32442284 C-115.22676651 50.81135046 -115.23075696 48.29827616 -115.23841095 45.78521538 C-115.24833769 42.35843684 -115.24597703 38.93187993 -115.24050903 35.50509644 C-115.24633472 34.50703598 -115.2521604 33.50897552 -115.25816262 32.48067081 C-115.23707001 27.60166665 -115.1418267 23.36997862 -113 18.875 C-112.01 18.215 -111.02 17.555 -110 16.875 C-108.96514123 14.55691636 -107.9644586 12.22324702 -107 9.875 C-106.34 9.215 -105.68 8.555 -105 7.875 C-104.7215625 7.10027344 -104.443125 6.32554688 -104.15625 5.52734375 C-100.39856716 -3.092476 -89.07893542 -9.67349489 -80.6171875 -13.0859375 C-78.42589315 -13.83617726 -76.22886487 -14.49656066 -74 -15.125 C-72.865625 -15.49625 -71.73125 -15.8675 -70.5625 -16.25 C-44.34356992 -22.68973721 -20.42901281 -17.34976128 0 0 Z " fill="#343434" transform="translate(281,52.125)"/>
<path d="M0 0 C1.29854373 0.61377375 2.60771266 1.20722966 3.9375 1.75 C4.948125 2.1625 5.95875 2.575 7 3 C7 3.66 7 4.32 7 5 C7.53367187 5.22042969 8.06734375 5.44085938 8.6171875 5.66796875 C11.833199 7.4657719 14.42444316 9.83863224 17.125 12.3125 C17.66253906 12.78623047 18.20007813 13.25996094 18.75390625 13.74804688 C21.92531073 16.63869111 23.61944749 18.97010148 25 23 C25.46738712 23.57906286 25.93477425 24.15812572 26.41632462 24.75473595 C32.62539521 33.55767823 32.56783549 45.57508401 32.45410156 55.89990234 C32.45296968 57.3305203 32.45361357 58.76114058 32.45587158 60.1917572 C32.45700639 64.0277931 32.43370049 67.86331562 32.40557575 71.69923353 C32.38035322 75.72570065 32.37820384 79.7521831 32.37347412 83.77871704 C32.36110498 91.38217092 32.32836669 98.98539123 32.28807616 106.58874285 C32.24316821 115.25392393 32.22132387 123.91911691 32.20129442 132.58438563 C32.15962769 150.3897222 32.08939532 168.19484224 32 186 C27.67118967 187.28375347 23.8878709 188.19173303 19.375 188.3125 C6.90819385 189.30735735 -1.29668467 194.14377554 -9.63671875 203.0625 C-11.80932975 205.7630016 -12.81789287 207.80453232 -14 211 C-14.97177516 212.02744978 -15.97095676 213.02991237 -17 214 C-19.84993046 218.631137 -21.59382075 223.60719702 -23.2109375 228.76953125 C-24.23802922 231.67284496 -25.62610204 234.29992571 -27.1328125 236.98046875 C-31.23124203 246.5250096 -30.45008758 262.34223806 -26.92578125 271.9296875 C-25.66212843 274.75557777 -24.35064785 277.53726751 -22.89453125 280.26953125 C-22 282 -22 282 -21.125 284.5 C-19.65548942 287.76557907 -17.56254114 290.33949598 -15.33984375 293.1328125 C-14 295 -14 295 -13 298 C-11.66945813 298.34430689 -10.3355169 298.67552582 -9 299 C-6.84375 300.6015625 -6.84375 300.6015625 -4.5 302.625 C3.1601749 308.9108494 11.38994325 313.62330403 20.6640625 317.08984375 C24.2409446 318.48351186 27.59393331 320.23389134 31 322 C30.11000373 338.41889679 23.99312757 348.76979403 12 360 C10.8553125 361.2065625 10.8553125 361.2065625 9.6875 362.4375 C8 364 8 364 6 364 C6 364.66 6 365.32 6 366 C3.07851114 366.97382962 0.15689185 367.94722665 -2.765625 368.91796875 C-4.67512422 369.55677465 -6.58241077 370.20237859 -8.484375 370.86328125 C-16.94351806 373.78798497 -24.96431433 375.41043922 -33.9375 375.4375 C-34.83686279 375.44136719 -35.73622559 375.44523437 -36.6628418 375.44921875 C-45.93385572 375.29303426 -54.2790081 372.98153569 -63 370 C-63 369.34 -63 368.68 -63 368 C-63.969375 367.87625 -64.93875 367.7525 -65.9375 367.625 C-66.948125 367.41875 -67.95875 367.2125 -69 367 C-69.33 366.34 -69.66 365.68 -70 365 C-71.6476038 364.28752268 -73.31763529 363.62599617 -75 363 C-77.76335892 361.94342159 -78.76165542 361.41710302 -80.25 358.8125 C-82.37710679 355.39393552 -84.96966442 353.28245323 -88.0625 350.74609375 C-91.96474793 347.22935015 -93.75414102 343.57124538 -95.625 338.6875 C-96.05039062 337.59824219 -96.47578125 336.50898438 -96.9140625 335.38671875 C-99.25194497 328.09555291 -99.14648269 320.92738921 -99.14044189 313.33660889 C-99.14341302 312.16640961 -99.14638414 310.99621033 -99.1494453 309.79055047 C-99.15660081 306.55534244 -99.15930267 303.32016685 -99.16004276 300.08495212 C-99.16190011 296.59062025 -99.16945076 293.09629974 -99.17617798 289.60197449 C-99.18973327 281.96759796 -99.19578142 274.3332267 -99.20018864 266.69884014 C-99.20295537 261.92854133 -99.20719346 257.15824453 -99.21169281 252.38794708 C-99.22388099 239.17015078 -99.23418173 225.95235609 -99.2375679 212.73455429 C-99.23778747 211.88936289 -99.23800703 211.04417149 -99.23823325 210.17336823 C-99.23845153 209.32620491 -99.23866981 208.47904159 -99.2388947 207.60620666 C-99.23933816 205.88965209 -99.23978472 204.17309753 -99.24023438 202.45654297 C-99.2404558 201.60508045 -99.24067723 200.75361794 -99.24090537 199.87635353 C-99.24485294 186.08140464 -99.26230772 172.28650858 -99.2855939 158.4915801 C-99.30932995 144.31529771 -99.32177075 130.13904181 -99.32293582 115.96273923 C-99.32385122 108.00856473 -99.32956973 100.05445912 -99.34775543 92.10030365 C-99.36318676 85.32724135 -99.36825898 78.55426924 -99.36001733 71.78119269 C-99.35612175 68.32865902 -99.35698667 64.87630682 -99.37107468 61.4237957 C-99.38379718 57.67281717 -99.37791509 53.92230126 -99.36749268 50.17132568 C-99.37554908 49.09143962 -99.38360548 48.01155355 -99.39190602 46.89894366 C-99.30175493 32.98170539 -95.09318013 22.00588941 -85.375 12 C-83.30497685 9.96629304 -81.58028229 8.28678043 -78.9765625 7 C-76.85414636 6.056779 -76.85414636 6.056779 -75.078125 4.0625 C-57.27165872 -13.61008307 -20.07253238 -11.9581044 0 0 Z " fill="#343434" transform="translate(425,8)"/>
<path d="M0 0 C2.45365386 1.90305984 4.78885562 3.86939543 7.09375 5.94921875 C7.79628906 6.58214844 8.49882813 7.21507813 9.22265625 7.8671875 C14.34994989 12.72516875 14.34994989 12.72516875 15.09375 16.94921875 C15.75375 16.94921875 16.41375 16.94921875 17.09375 16.94921875 C21.51956976 28.84649926 21.67677146 40.0617676 21.64306641 52.63183594 C21.65177668 54.79186706 21.66214828 56.95189202 21.67404175 59.11190796 C21.70067414 64.94275055 21.70199557 70.7733327 21.69691515 76.60422421 C21.69476536 81.48940627 21.70456896 86.37453675 21.71412599 91.25970769 C21.73626594 102.79492303 21.73721996 114.3300081 21.72509766 125.86523438 C21.71302515 137.724835 21.7376335 149.58396064 21.78023779 161.44348025 C21.81558417 171.66224886 21.82745447 181.88086707 21.82096231 192.09969449 C21.817354 198.18676007 21.82243337 204.27348687 21.85039139 210.36049652 C21.87572585 216.09000173 21.87149475 221.81877215 21.84556961 227.54826736 C21.84087704 229.63704564 21.84616582 231.72587708 21.86281586 233.81459427 C21.93747404 243.91797551 21.56461568 253.24912694 18.42611694 262.92266846 C18.19410666 263.6405972 17.96209638 264.35852594 17.72305548 265.0982101 C13.17938655 277.48389745 0.14012479 284.96998836 -10.90625 290.94921875 C-11.67324219 291.36816406 -12.44023438 291.78710938 -13.23046875 292.21875 C-29.62075022 300.3078538 -50.2411441 299.94613639 -67.40625 294.63671875 C-77.14367135 291.1367915 -86.05478218 286.82874471 -93.90625 279.94921875 C-93.90625 279.28921875 -93.90625 278.62921875 -93.90625 277.94921875 C-94.50050781 277.7275 -95.09476563 277.50578125 -95.70703125 277.27734375 C-98.59848107 275.53117512 -99.51652909 273.66715115 -101.09375 270.69921875 C-101.60292969 269.7659375 -102.11210938 268.83265625 -102.63671875 267.87109375 C-103.94329102 264.86396742 -104.50804795 262.19240654 -104.90625 258.94921875 C-105.56625 258.94921875 -106.22625 258.94921875 -106.90625 258.94921875 C-109.30570631 254.68312619 -109.17920161 250.75309822 -109.14675903 245.96429443 C-109.14846788 245.04616101 -109.15017673 244.12802758 -109.15193737 243.18207192 C-109.15523735 240.0988415 -109.14422011 237.01582764 -109.13330078 233.93261719 C-109.13273678 231.72515874 -109.13305301 229.51769992 -109.13418579 227.3102417 C-109.13476073 221.31063718 -109.12298358 215.31111228 -109.10903788 209.3115263 C-109.09655401 203.04413441 -109.09536187 196.77674079 -109.09298706 190.50933838 C-109.08747273 179.9876578 -109.07497161 169.4660019 -109.05712891 158.94433594 C-109.03877017 148.10709784 -109.02461363 137.26986769 -109.01611328 126.43261719 C-109.01558783 125.76458107 -109.01506239 125.09654496 -109.01452102 124.40826532 C-109.01191094 121.05691595 -109.00938352 117.70556652 -109.00689721 114.35421705 C-108.98597966 86.55253057 -108.95079034 58.75087671 -108.90625 30.94921875 C-108.24625 30.94921875 -107.58625 30.94921875 -106.90625 30.94921875 C-106.82375 29.81484375 -106.74125 28.68046875 -106.65625 27.51171875 C-105.22130712 16.38599724 -98.51162685 8.74861975 -90.2421875 1.71484375 C-83.51277432 -3.37160233 -76.02668346 -7.68456223 -67.90625 -10.05078125 C-66.75640625 -10.40140625 -65.6065625 -10.75203125 -64.421875 -11.11328125 C-41.56125131 -17.70626919 -19.32548052 -13.63693182 0 0 Z " fill="#343434" transform="translate(115.90625,85.05078125)"/>
<path d="M0 0 C0.33 0 0.66 0 1 0 C1 114.18 1 228.36 1 346 C-69.29 346 -139.58 346 -212 346 C-212 345.67 -212 345.34 -212 345 C-211.18917969 344.86464844 -210.37835937 344.72929688 -209.54296875 344.58984375 C-197.51580966 342.25161841 -188.93830072 337.76500237 -181.79125977 327.54907227 C-178.4687664 322.11442789 -177.83396354 316.55182707 -177.60327148 310.26831055 C-177.38331805 304.97828376 -176.45581845 302.09122222 -173 298 C-172.34 298 -171.68 298 -171 298 C-170.835 297.05125 -170.67 296.1025 -170.5 295.125 C-169.1676411 290.3651961 -166.08662309 287.08692651 -162.96484375 283.35546875 C-159.94220864 279.73191214 -157.51233798 276.04516948 -155.4375 271.8125 C-154 269 -154 269 -152.53515625 267.671875 C-149.91326404 264.81648093 -149.2217937 261.13337775 -148.0625 257.49609375 C-147 255 -147 255 -144 253 C-142.60104918 250.6829877 -141.28432937 248.37704509 -140 246 C-139 244.33333333 -138 242.66666667 -137 241 C-136.66871094 240.39671875 -136.33742188 239.7934375 -135.99609375 239.171875 C-133.20336606 234.10168303 -133.20336606 234.10168303 -131 233 C-129.94668566 231.22044762 -129.94668566 231.22044762 -129 229.125 C-127.78798161 226.55892982 -126.58730868 224.38096302 -125 222 C-124.34 222 -123.68 222 -123 222 C-122.79375 221.21625 -122.5875 220.4325 -122.375 219.625 C-120.83036122 215.55277048 -118.74483874 212.1605354 -116.453125 208.47265625 C-115.19818727 206.33723801 -114.21475535 204.29883145 -113.3125 202 C-112 199 -112 199 -109 197 C-108.30421757 195.34337517 -107.61284464 193.68456896 -106.95703125 192.01171875 C-105.48828986 188.9243644 -103.41598648 186.37248039 -101.3046875 183.69921875 C-99.93271646 182.02376337 -99.93271646 182.02376337 -99 180 C-98.34 180 -97.68 180 -97 180 C-96.71125 179.236875 -96.4225 178.47375 -96.125 177.6875 C-95 175 -95 175 -93 172 C-92.34 172 -91.68 172 -91 172 C-91 171.34 -91 170.68 -91 170 C-90.34 170 -89.68 170 -89 170 C-88.89429688 169.45730469 -88.78859375 168.91460938 -88.6796875 168.35546875 C-87.83865616 165.44086016 -86.55913772 162.98456257 -85.125 160.3125 C-84.61195313 159.33925781 -84.09890625 158.36601563 -83.5703125 157.36328125 C-82 155 -82 155 -79 154 C-79 152.68 -79 151.36 -79 150 C-77.125 147.75 -77.125 147.75 -75 146 C-74.34 146 -73.68 146 -73 146 C-72.59587891 144.92105469 -72.59587891 144.92105469 -72.18359375 143.8203125 C-71.00182948 141.00435936 -69.63443645 138.49089424 -68.0625 135.875 C-67.55847656 135.02679687 -67.05445313 134.17859375 -66.53515625 133.3046875 C-65.15913876 131.2389106 -63.77451882 129.71114315 -62 128 C-61.401875 127.071875 -60.80375 126.14375 -60.1875 125.1875 C-58.47077007 122.68597924 -57.17557271 121.16031152 -55 119.1875 C-51.90208935 116.22899533 -50.63515687 113.15039217 -49.0625 109.21875 C-47.95824101 106.91279741 -46.74707852 105.41440323 -45 103.5625 C-41.92684475 100.21976973 -40.54556419 96.84334423 -38.9921875 92.61328125 C-36.45969638 85.94305857 -32.98022133 79.84169324 -29.1171875 73.8671875 C-27.8099525 71.78139457 -27.8099525 71.78139457 -26.5 68.4375 C-25.27760053 65.63616789 -24.25925418 63.91006661 -22.4375 61.5625 C-19.76593854 57.96586054 -18.88600873 54.33243254 -18 50 C-17.51531859 48.05861128 -17.0146254 46.12116671 -16.5 44.1875 C-16.2628125 43.27355469 -16.025625 42.35960937 -15.78125 41.41796875 C-15 39 -15 39 -13 36 C-12.34 36 -11.68 36 -11 36 C-10.98582031 35.46375 -10.97164062 34.9275 -10.95703125 34.375 C-10.42069552 25.56169936 -7.96645853 15.93291706 -4 8 C-3.34 8 -2.68 8 -2 8 C-1.855625 6.865625 -1.71125 5.73125 -1.5625 4.5625 C-1 1 -1 1 0 0 Z " fill="#FEFEFE" transform="translate(767,422)"/>
<path d="M0 0 C2 1 2 1 2.80102539 3.29418945 C4.57988239 10.57939862 5.6916974 17.73181747 6.4375 25.1875 C7.71963754 36.80681768 9.97015211 47.73824667 13.109375 58.984375 C16.1398735 69.89932904 16.1398735 69.89932904 16.4375 75.5625 C16.78478592 81.37953921 18.74201108 86.36654752 20.80859375 91.77734375 C21.74068849 94.29858362 22.45521951 96.63188018 23 99.25 C24.05113467 103.19175502 25.56059236 106.36044993 27.4453125 109.95703125 C29.03047566 113.05964959 30.49770898 116.20004636 31.95654297 119.36328125 C34.95804414 125.86910879 38.07551725 131.99063578 42 138 C42 138.66 42 139.32 42 140 C42.66 140 43.32 140 44 140 C44.4125 140.886875 44.825 141.77375 45.25 142.6875 C46.84940981 145.98194268 46.84940981 145.98194268 49 148.4375 C51.3366222 151.4312972 52.51700479 154.51818516 54 158 C54.98791266 159.01194297 55.9886303 160.01150047 57 161 C57.80541736 162.20678813 58.57499576 163.43805123 59.3125 164.6875 C61.0969509 167.63103531 63.00145184 170.35405395 65.125 173.0625 C67.05505089 175.5700853 68.50899831 177.87550103 69.6875 180.8125 C70.944213 183.86451729 71.7193403 184.82120599 74 187 C78.88852315 193.02122973 82.04925684 199.20390609 83 207 C83.66 207 84.32 207 85 207 C91.17304678 218.98649859 91.17304678 218.98649859 93.27734375 224.984375 C94.47859847 228.33490168 95.87110531 231.60949076 97.23046875 234.8984375 C98 237 98 237 98 239 C98.66 239 99.32 239 100 239 C101.79865787 243.85637624 103.17243786 248.5678359 104 253.6875 C104.53393256 256.93596366 105.00093309 259.00175422 106.5625 261.9375 C110.23074764 269.75246237 109.15608263 280.12560593 109.24609375 288.64453125 C109.27899187 290.80664529 109.3122041 292.96875456 109.34570312 295.13085938 C109.39324857 298.48589244 109.43782993 301.84090084 109.47680664 305.19604492 C109.51658194 308.47071892 109.56805723 311.74504886 109.62109375 315.01953125 C109.6295079 316.01757278 109.63792206 317.01561432 109.64659119 318.04389954 C109.74076552 323.37314101 110.02621956 328.01606982 112 333 C112.99 333.66 113.98 334.32 115 335 C115.433125 335.7425 115.86625 336.485 116.3125 337.25 C119.19109066 341.94103664 122.2347084 345.28080713 127.375 347.375 C128.674375 347.684375 128.674375 347.684375 130 348 C130 348.66 130 349.32 130 350 C131.093125 350.12375 132.18625 350.2475 133.3125 350.375 C137 351 137 351 140 353 C93.47 353 46.94 353 -1 353 C-1.02202537 308.17430165 -1.04049723 263.34860839 -1.05106533 218.52290619 C-1.05231611 213.23670633 -1.05361042 207.95050648 -1.05493164 202.66430664 C-1.05519395 201.61187255 -1.05545626 200.55943846 -1.05572652 199.47511243 C-1.06008364 182.4106229 -1.06797142 165.34613672 -1.0771528 148.28164918 C-1.08648817 130.78566257 -1.09205536 113.28967772 -1.09408849 95.79368871 C-1.09546396 84.98856211 -1.09981585 74.18344497 -1.10791647 63.37832128 C-1.11318249 55.97945808 -1.11480462 48.58059981 -1.11350138 41.18173487 C-1.11285777 36.9062669 -1.11387804 32.63081554 -1.11920547 28.35535049 C-1.1240392 24.44781294 -1.12433883 20.5403033 -1.12089889 16.63276451 C-1.12047317 15.2128363 -1.12176914 13.79290641 -1.12488318 12.37298156 C-1.12884685 10.4554458 -1.12615651 8.53789962 -1.12304783 6.62036228 C-1.12342755 5.55144955 -1.12380727 4.48253682 -1.1241985 3.3812328 C-1 1 -1 1 0 0 Z " fill="#FDFDFD" transform="translate(1,415)"/>
<path d="M0 0 C4.73164441 3.41517883 8.98073108 7.45959323 13.265625 11.41015625 C15.44540982 13.46519633 15.44540982 13.46519633 17.6953125 14.828125 C20.34395981 17.14430612 21.02841587 19.60439519 22.1875 22.8984375 C23.59970557 27.1555585 23.59970557 27.1555585 25.62008667 31.12322998 C27.05082464 34.67225334 26.82306257 38.22520004 26.78955078 41.99316406 C26.78984283 42.85206238 26.79013489 43.71096069 26.79043579 44.59588623 C26.78904388 47.43121487 26.77348914 50.26627983 26.7578125 53.1015625 C26.75408188 55.06882585 26.75123514 57.03609106 26.74923706 59.00335693 C26.74160448 64.17864114 26.72195914 69.35381292 26.6998291 74.52905273 C26.67936264 79.81101968 26.67023363 85.09300482 26.66015625 90.375 C26.63871295 100.73702854 26.60458146 111.09897367 26.5625 121.4609375 C25.76610611 121.5419722 24.96971222 121.6230069 24.14918518 121.70649719 C16.51906302 122.48328528 8.8891708 123.26228297 1.25950718 124.04356098 C-2.65980515 124.44482553 -6.57919128 124.8453331 -10.4987793 125.24389648 C-26.55984907 126.87755543 -42.61467532 128.51633435 -58.63340759 130.53242493 C-65.14035828 131.34457495 -71.60371592 131.85655854 -78.15234375 132.2109375 C-82.53758282 132.54465367 -86.82223852 133.2594654 -91.14453125 134.05859375 C-94.03972584 134.41233639 -96.73364181 134.50134578 -99.64331055 134.48608398 C-100.54172165 134.48245346 -101.44013275 134.47882294 -102.36576843 134.4750824 C-103.04943985 134.47041458 -103.73311127 134.46574677 -104.4375 134.4609375 C-104.53116332 119.63957229 -104.60158652 104.81824655 -104.64474869 89.99664497 C-104.66532713 83.11387328 -104.69335659 76.23128606 -104.73925781 69.34863281 C-104.78355939 62.70263981 -104.80665897 56.05678762 -104.81700897 49.41064072 C-104.82438197 46.87898626 -104.83877964 44.3473419 -104.86042023 41.8157692 C-104.88958844 38.26122921 -104.89345024 34.70747304 -104.89160156 31.15283203 C-104.91317322 29.59375877 -104.91317322 29.59375877 -104.93518066 28.00318909 C-104.88949945 19.85022248 -103.25725569 12.91593798 -98.02734375 6.5078125 C-91.8641792 1.17063908 -85.95034594 -3.31145635 -78.4375 -6.5390625 C-77.80972656 -6.81266602 -77.18195312 -7.08626953 -76.53515625 -7.36816406 C-51.28795666 -17.95146559 -22.80325683 -14.39821024 0 0 Z " fill="#343434" transform="translate(590.4375,54.5390625)"/>
<path d="M0 0 C0.33 0 0.66 0 1 0 C1.00097681 0.61216734 1.00195362 1.22433467 1.00296003 1.85505253 C1.06130027 38.18049461 1.13514849 74.50587465 1.22898628 110.83124298 C1.24025372 115.19812329 1.25139229 119.56500392 1.26245117 123.93188477 C1.26465486 124.80120962 1.26685854 125.67053448 1.269129 126.56620251 C1.30444947 140.62075481 1.3293432 154.67530705 1.35034702 168.72988719 C1.37215097 183.16364339 1.40524482 197.59734227 1.44870156 212.03104967 C1.47513931 220.92908504 1.49289259 229.82704906 1.49934604 238.72512173 C1.50462413 244.83647984 1.52092172 250.94774837 1.54566566 257.05905838 C1.55959826 260.57884838 1.56888266 264.09847832 1.56500816 267.61829758 C1.4530884 287.51365822 1.4530884 287.51365822 5 307 C0.36457793 302.69387021 -0.43409448 297.10762859 -1 291 C-1.1412823 287.09619753 -1.13495124 283.19552185 -1.12698364 279.289505 C-1.12854363 278.11436677 -1.13010362 276.93922853 -1.13171089 275.72848004 C-1.13500211 272.47975345 -1.13382738 269.23106442 -1.13072467 265.98233879 C-1.1284584 262.47382973 -1.13195625 258.96532568 -1.13470459 255.45681763 C-1.1391477 248.58965338 -1.13819241 241.72250007 -1.13529195 234.85533539 C-1.13303275 229.27534849 -1.13272764 223.69536465 -1.13381577 218.11537743 C-1.133969 217.32095207 -1.13412223 216.52652672 -1.13428011 215.70802787 C-1.13459983 214.09416253 -1.13492405 212.48029719 -1.1352527 210.86643185 C-1.13810307 195.73970818 -1.13482711 180.61299057 -1.12945233 165.48626789 C-1.12498211 152.50313064 -1.12576288 139.52000232 -1.13037109 126.53686523 C-1.1357202 111.45928191 -1.13783115 96.3817039 -1.13475883 81.30411977 C-1.13444028 79.69713827 -1.13412591 78.09015677 -1.13381577 76.48317528 C-1.13366149 75.69250339 -1.13350721 74.90183151 -1.13334826 74.08719987 C-1.13248431 68.5115297 -1.13394332 62.9358629 -1.13629532 57.36019325 C-1.13909712 50.56901889 -1.13834688 43.77785608 -1.13301457 36.98668305 C-1.13038312 33.52090135 -1.12936317 30.05513894 -1.13266373 26.58935738 C-1.13538174 22.83606681 -1.13198604 19.08283111 -1.12698364 15.32954407 C-1.12921436 14.22926811 -1.13144509 13.12899215 -1.13374341 11.9953745 C-1.13113566 10.99199267 -1.12852791 9.98861084 -1.12584114 8.95482349 C-1.12559761 7.65503676 -1.12559761 7.65503676 -1.12534916 6.32899171 C-1.00473463 4.08796957 -0.6258402 2.14955768 0 0 Z " fill="#7A7A7A" transform="translate(327,42)"/>
<path d="M0 0 C2.67540821 4.01311232 4.24854105 6.67162454 4.25726891 11.54039192 C4.2637178 12.45135537 4.27016669 13.36231882 4.276811 14.30088723 C4.2737138 15.29795217 4.2706166 16.29501711 4.26742554 17.32229614 C4.27195665 18.38446535 4.27648776 19.44663456 4.28115618 20.54099071 C4.29385039 24.11216912 4.29217655 27.68319601 4.29052734 31.25439453 C4.29650957 33.81015724 4.30331441 36.36591813 4.31088257 38.92167664 C4.32674361 45.15158733 4.33299249 51.38144223 4.33410732 57.61137123 C4.33505779 62.67746214 4.33916802 67.74354057 4.34550858 72.80962753 C4.36312552 87.17843956 4.37234713 101.54722171 4.37084763 115.91604461 C4.37076772 116.69076161 4.3706878 117.4654786 4.37060547 118.26367188 C4.37052371 119.03933722 4.37044195 119.81500257 4.37035771 120.61417292 C4.36954543 133.17490874 4.38866713 145.73552446 4.4168822 158.29622556 C4.44563614 171.19889063 4.45942101 184.10149719 4.45769465 197.00419509 C4.45703145 204.24578983 4.4624925 211.48725878 4.48405075 218.72882462 C4.50420687 225.54307512 4.50356309 232.35705628 4.48901749 239.17131996 C4.48692704 241.66981583 4.49164421 244.16832826 4.5037384 246.66679573 C4.51920317 250.08344211 4.5098733 253.49917491 4.49447632 256.915802 C4.50476344 257.89948261 4.51505057 258.88316323 4.52564943 259.89665234 C4.43070196 269.46212007 1.58610114 277.04800435 -5 284 C-5 280.88772805 -4.54372951 278.05847848 -4 275 C-3.01 274.67 -2.02 274.34 -1 274 C0.48870669 266.23865267 1.289886 258.82060771 1.24723816 250.92326355 C1.24965257 249.87664356 1.25206699 248.83002357 1.25455457 247.75168782 C1.26014332 244.28125173 1.25156526 240.81100369 1.24291992 237.34057617 C1.24399397 234.83787995 1.24593448 232.33518397 1.24867249 229.83248901 C1.25300252 223.76375262 1.24810608 217.69508856 1.23882218 211.62636306 C1.22839168 204.55169212 1.22850958 197.47703277 1.22899476 190.40235559 C1.22949428 177.77872357 1.22036231 165.15511699 1.20581055 152.53149414 C1.19171038 140.29320818 1.18464051 128.05494458 1.18530273 115.81665039 C1.18534269 115.06207702 1.18538265 114.30750365 1.18542381 113.53006443 C1.18546417 112.77676895 1.18550452 112.02347348 1.1855461 111.24735087 C1.18623637 97.29192921 1.1803454 83.33651701 1.17139288 69.38109842 C1.16838108 64.4534945 1.16731388 59.52589232 1.16686058 54.59828758 C1.1661062 47.96704981 1.15975112 41.33583247 1.14969444 34.70460129 C1.14677395 32.27095877 1.14554316 29.83731356 1.14612198 27.40366936 C1.1466129 24.08302739 1.14095472 20.76245106 1.13371277 17.44181824 C1.13603567 15.9963935 1.13603567 15.9963935 1.1384055 14.52176827 C1.12057299 9.57314047 0.84235961 4.87858768 0 0 Z " fill="#757575" transform="translate(293,72)"/>
<path d="M0 0 C0.99 0.33 1.98 0.66 3 1 C5.36986242 6.71257675 5.29205181 13.26501193 5.27415466 19.35359192 C5.27939134 20.25119647 5.28462802 21.14880103 5.29002339 22.07360572 C5.30493193 25.05798701 5.30572651 28.04219547 5.30639648 31.02661133 C5.31402403 33.17593166 5.32245254 35.32524928 5.33161926 37.4745636 C5.35351008 43.29697006 5.36235567 49.11932402 5.36744571 54.94176698 C5.37109513 58.58340907 5.37733818 62.22503754 5.3844471 65.86667442 C5.40892099 78.58242774 5.42198942 91.29814036 5.42553711 104.01391602 C5.42917264 115.8490336 5.45907482 127.68389191 5.50094169 139.51893026 C5.53567535 149.69586948 5.55108607 159.87272287 5.55178314 170.04972094 C5.55257478 176.12099715 5.56126202 182.19200892 5.58978081 188.26322365 C5.61601449 193.97530928 5.61813673 199.68691214 5.60212517 205.39903069 C5.60031503 207.48872051 5.60696178 209.57843844 5.62294388 211.66806793 C5.70296356 222.81486786 5.6846909 232.07856083 0 242 C-1 240 -1 240 -0.45456249 238.16815376 C-0.16790019 237.44131323 0.11876211 236.71447269 0.41411114 235.96560669 C2.13537505 231.04879429 2.42011306 226.72444016 2.3742218 221.55029297 C2.37819621 220.64240461 2.38217061 219.73451626 2.38626546 218.79911613 C2.39583156 215.77997692 2.38410483 212.761313 2.37231445 209.7421875 C2.37474429 207.56829657 2.37846547 205.39440676 2.38337708 203.22052002 C2.39276333 197.33214675 2.38337956 191.44394036 2.37004495 185.55558014 C2.35870701 179.38584883 2.36283977 173.21612546 2.36479187 167.04638672 C2.3656741 156.68649579 2.3546092 146.3266704 2.33618164 135.96679688 C2.31501515 123.99878471 2.3115046 112.03086851 2.3177436 100.06284142 C2.32344348 88.53783276 2.31778422 77.0128578 2.30657005 65.487854 C2.30193235 60.58855565 2.30104663 55.68927797 2.3031559 50.78997803 C2.30504318 45.01809524 2.29690095 39.24630976 2.2810955 33.47444916 C2.27686261 31.35932569 2.27599539 29.24419233 2.27878571 27.12906647 C2.28202274 24.23584081 2.2728874 21.3429031 2.26069641 18.44970703 C2.26447573 17.61827116 2.26825506 16.78683529 2.27214891 15.93020439 C2.2310754 10.39699424 1.40038942 5.35045025 0 0 Z " fill="#B5B5B5" transform="translate(134,107)"/>
<path d="M0 0 C8.20786323 4.46035247 10.15182116 10.45546347 13 19 C13.34610321 19.54638123 13.69220642 20.09276245 14.04879761 20.65570068 C15.48966522 24.20681135 15.26060707 27.75925941 15.22705078 31.53222656 C15.22734283 32.39112488 15.22763489 33.25002319 15.22793579 34.13494873 C15.22654388 36.97027737 15.21098914 39.80534233 15.1953125 42.640625 C15.19158188 44.60788835 15.18873514 46.57515356 15.18673706 48.54241943 C15.17910448 53.71770364 15.15945914 58.89287542 15.1373291 64.06811523 C15.11686264 69.35008218 15.10773363 74.63206732 15.09765625 79.9140625 C15.07621295 90.27609104 15.04208146 100.63803617 15 111 C14.34 111 13.68 111 13 111 C12.99635437 109.91307358 12.99270874 108.82614716 12.98895264 107.70628357 C12.95197332 97.45113303 12.89416837 87.19628195 12.81609726 76.94135952 C12.77662815 71.66947136 12.74443679 66.39775009 12.72900391 61.12573242 C12.71383374 56.03565295 12.67938142 50.94603232 12.63169098 45.8561573 C12.61688096 43.91659603 12.6089592 41.97696924 12.60811615 40.03735161 C12.60574361 37.31534068 12.57864115 34.59459484 12.54589844 31.87280273 C12.5509288 31.07510468 12.55595917 30.27740662 12.56114197 29.45553589 C12.45721974 23.85287524 11.05665134 20.69050218 8 16 C7.12890625 13.5234375 7.12890625 13.5234375 6.5625 11.375 C5.27319691 7.17043938 3.30471094 4.94744489 0 2 C0 1.34 0 0.68 0 0 Z " fill="#999999" transform="translate(602,65)"/>
<path d="M0 0 C3.28588809 2.86190253 4.5757423 4.64875553 5 9 C5.08717762 11.0845259 5.12201218 13.17154149 5.12025452 15.25788879 C5.12162918 16.51847107 5.12300385 17.77905334 5.12442017 19.07783508 C5.12088149 20.46701074 5.11724669 21.85618615 5.11352539 23.24536133 C5.1132432 24.71406045 5.11340188 26.1827597 5.1139679 27.65145874 C5.11425461 31.63245304 5.1083782 35.61341717 5.10139394 39.59440446 C5.09513947 43.75708249 5.09455494 47.91976123 5.09336853 52.08244324 C5.09026139 59.96233611 5.08205632 67.8422151 5.07201904 75.72210187 C5.06083874 84.69423384 5.05534262 93.66636647 5.05032361 102.63850367 C5.0398732 121.09234365 5.0222857 139.54617071 5 158 C4.34 157.67 3.68 157.34 3 157 C3.00276538 156.26377033 3.00553076 155.52754066 3.00837994 154.76900101 C3.07477468 136.8142877 3.12434603 118.85959906 3.15543652 100.90478897 C3.17087316 92.2218 3.19190107 83.53889323 3.22631836 74.85595703 C3.25631918 67.28358424 3.27559826 59.71127101 3.28226548 52.13884044 C3.28615974 48.1332084 3.29524412 44.12774668 3.31719017 40.12216949 C3.3377246 36.34321744 3.34380001 32.56450403 3.33932304 28.78550148 C3.34052728 26.75528017 3.35657988 24.72508417 3.3732605 22.69493103 C3.34663029 14.71006421 2.33430224 7.64176609 0 0 Z " fill="#D0D0D0" transform="translate(453,37)"/>
<path d="M0 0 C0.66 0.33 1.32 0.66 2 1 C3.14580296 7.29804685 3.16069738 13.57075845 3.16796875 19.95703125 C3.17129715 20.98181076 3.17462555 22.00659027 3.17805481 23.06242371 C3.18309192 25.21470697 3.18546414 27.36699796 3.18530273 29.51928711 C3.18750476 32.81962693 3.20573662 36.11964039 3.22460938 39.41992188 C3.22754082 41.51562386 3.22952728 43.61132743 3.23046875 45.70703125 C3.23765427 46.69451859 3.24483978 47.68200592 3.25224304 48.69941711 C3.24916641 49.61434433 3.24608978 50.52927155 3.24291992 51.47192383 C3.24434494 52.27608231 3.24576996 53.08024078 3.24723816 53.9087677 C3 56 3 56 1 59 C0.61500109 60.65549531 0.27206865 62.3222433 0 64 C-0.66 64 -1.32 64 -2 64 C-1.69140975 61.22867983 -1.3782967 58.45800014 -1.0625 55.6875 C-0.97548828 54.90181641 -0.88847656 54.11613281 -0.79882812 53.30664062 C-0.71181641 52.54931641 -0.62480469 51.79199219 -0.53515625 51.01171875 C-0.456604 50.31522217 -0.37805176 49.61872559 -0.29711914 48.90112305 C0 47 0 47 1 44 C1.09668119 41.43721874 1.1399977 38.90247486 1.1328125 36.33984375 C1.13424759 35.22132774 1.13424759 35.22132774 1.13571167 34.08021545 C1.13639151 32.50586869 1.1345509 30.9315191 1.13037109 29.35717773 C1.1250125 26.9431329 1.13032655 24.52927348 1.13671875 22.11523438 C1.13605808 20.58593709 1.13477715 19.05663992 1.1328125 17.52734375 C1.13483673 16.80336899 1.13686096 16.07939423 1.13894653 15.33348083 C1.18338546 11.54081642 1.18338546 11.54081642 0 8 C-0.13415472 5.3276379 -0.04318541 2.67749512 0 0 Z " fill="#ADADAD" transform="translate(765,366)"/>
<path d="M0 0 C-0.96099609 0.74443359 -0.96099609 0.74443359 -1.94140625 1.50390625 C-7.3128338 5.72259823 -12.2867398 10.06170351 -17 15 C-18.33333333 16.33333333 -19.66666667 17.66666667 -21 19 C-21.65625 17.19555664 -21.65625 17.19555664 -22 15 C-21.03125 13.40014648 -21.03125 13.40014648 -19.5 11.87109375 C-18.94183594 11.31099609 -18.38367188 10.75089844 -17.80859375 10.17382812 C-17.21175781 9.60083984 -16.61492187 9.02785156 -16 8.4375 C-15.43410156 7.86064453 -14.86820312 7.28378906 -14.28515625 6.68945312 C-4.95805261 -2.4790263 -4.95805261 -2.4790263 0 0 Z " fill="#CECECE" transform="translate(434,199)"/>
<path d="M0 0 C1.13194765 3.14429903 0.79370688 5.50710012 0.26953125 8.75 C-0.73957922 17.17387868 -0.37142365 24.23106724 3 32 C2.67 32.66 2.34 33.32 2 34 C-4.04696671 25.80733543 -3.64551506 16.8978976 -3 7 C-2.27761503 4.27845663 -1.42851847 2.44038571 0 0 Z " fill="#848484" transform="translate(431,246)"/>
<path d="M0 0 C0.33 0 0.66 0 1 0 C1.03738281 1.25554687 1.07476562 2.51109375 1.11328125 3.8046875 C1.56930244 16.31216181 3.21273926 25.82459995 9 37 C9 37.66 9 38.32 9 39 C8.34 39 7.68 39 7 39 C1.25968109 28.62642369 1.25968109 28.62642369 2 23 C1.34 23 0.68 23 0 23 C-0.85806623 18.55303771 -1.13470345 14.33916171 -1.125 9.8125 C-1.12757813 8.60207031 -1.13015625 7.39164062 -1.1328125 6.14453125 C-1 3 -1 3 0 0 Z " fill="#797979" transform="translate(394,253)"/>
<path d="M0 0 C6 2 6 2 7 4 C5.02 3.34 3.04 2.68 1 2 C1.18175781 3.09671021 1.18175781 3.09671021 1.3671875 4.21557617 C1.91557974 7.53888587 2.45784975 10.86316655 3 14.1875 C3.19078125 15.33798828 3.3815625 16.48847656 3.578125 17.67382812 C3.75859375 18.78564453 3.9390625 19.89746094 4.125 21.04296875 C4.29257813 22.06414795 4.46015625 23.08532715 4.6328125 24.13745117 C4.97414707 26.79845372 5.06884702 29.32142068 5 32 C2.4345406 29.4345406 2.45953913 27.52313332 2 24 C1.34 24 0.68 24 0 24 C0 16.08 0 8.16 0 0 Z " fill="#BBBBBB" transform="translate(0,392)"/>
<path d="M0 0 C0.5625 1.9375 0.5625 1.9375 1 4 C0.67 4.33 0.34 4.66 0 5 C-0.397493 7.34723966 -0.74368723 9.70328548 -1.0625 12.0625 C-1.23910156 13.35285156 -1.41570313 14.64320313 -1.59765625 15.97265625 C-1.73042969 16.97167969 -1.86320313 17.97070312 -2 19 C-2.66 19 -3.32 19 -4 19 C-4 20.98 -4 22.96 -4 25 C-4.66 25.33 -5.32 25.66 -6 26 C-5.77843074 22.78904711 -5.51765623 19.5824138 -5.25 16.375 C-5.188125 15.47136719 -5.12625 14.56773437 -5.0625 13.63671875 C-4.56263819 7.92996311 -3.64506129 4.46001402 0 0 Z " fill="#B8B8B8" transform="translate(594,720)"/>
<path d="M0 0 C-0.495 0.474375 -0.99 0.94875 -1.5 1.4375 C-3.11542197 2.75923698 -3.11542197 2.75923698 -3 4 C-7.77092956 5.23402862 -12.42469446 5.11265112 -17.3125 5.0625 C-18.14845703 5.05798828 -18.98441406 5.05347656 -19.84570312 5.04882812 C-21.89716649 5.03710548 -23.94859273 5.01917203 -26 5 C-26 4.67 -26 4.34 -26 4 C-24.86111328 3.92652344 -24.86111328 3.92652344 -23.69921875 3.8515625 C-22.20841797 3.73941406 -22.20841797 3.73941406 -20.6875 3.625 C-19.70136719 3.55539062 -18.71523437 3.48578125 -17.69921875 3.4140625 C-14.78471567 3.16134528 -14.78471567 3.16134528 -12 1 C-7.98943724 -0.11404521 -4.14363981 -0.08124784 0 0 Z " fill="#424242" transform="translate(90,378)"/>
<path d="M0 0 C3.15424413 2.54799665 3.71319259 4.98274546 4.5625 8.875 C5.23769723 11.91910954 5.88827776 14.73017263 7.08203125 17.61328125 C8.45635895 21.18653327 8.1288955 24.19758262 8 28 C5.77851936 24.66777905 4.95105522 21.51029619 4 17.6875 C3.0671705 14.00355225 2.12611781 10.36215079 0.875 6.76953125 C0 4 0 4 0 0 Z " fill="#A1A1A1" transform="translate(755,332)"/>
<path d="M0 0 C0.33 0.66 0.66 1.32 1 2 C0.0603147 3.91293078 -0.88735264 5.82252275 -1.8828125 7.70703125 C-3.33809298 10.69391811 -4.31918023 13.74978947 -5.2890625 16.921875 C-6 19 -6 19 -7.046875 21.0625 C-8.3144915 23.63929419 -8.61431442 26.17163905 -9 29 C-9.33 29 -9.66 29 -10 29 C-10.49343436 22.21527756 -8.99438218 18.02131199 -6 12 C-5.47048905 10.75365112 -4.94885483 9.50390733 -4.4375 8.25 C-3.14577735 5.32958358 -1.71204039 2.69034919 0 0 Z " fill="#919191" transform="translate(405,224)"/>
<path d="M0 0 C7.10241681 3.85962601 9.55829348 8.50164795 12.28515625 15.9765625 C12.97434478 18.89149103 13.06437756 20.25537861 12 23 C9.62860635 19.15670685 7.82775975 15.71614982 6.5625 11.375 C5.27319691 7.17043938 3.30471094 4.94744489 0 2 C0 1.34 0 0.68 0 0 Z " fill="#8A8A8A" transform="translate(602,65)"/>
<path d="M0 0 C1.65 0.33 3.3 0.66 5 1 C5.3150042 8.65343544 5.52609107 15.07841383 2 22 C1.01 22.66 0.02 23.32 -1 24 C-0.72285156 22.91460937 -0.44570313 21.82921875 -0.16015625 20.7109375 C0.2058563 19.26565719 0.5717346 17.82034288 0.9375 16.375 C1.11990234 15.66214844 1.30230469 14.94929688 1.49023438 14.21484375 C2.51316799 10.16030687 3.37957367 6.14052941 4 2 C2.68 1.67 1.36 1.34 0 1 C0 0.67 0 0.34 0 0 Z " fill="#B2B2B2" transform="translate(452,328)"/>
<path d="M0 0 C5.63616544 6.76339852 7.64294034 13.28774418 8 22 C4.73262697 18.73262697 4.04327104 15.16831802 3.875 10.625 C3.91625 9.75875 3.9575 8.8925 4 8 C3.34 8 2.68 8 2 8 C0.23537317 4.91190305 0 3.76687864 0 0 Z " fill="#AAAAAA" transform="translate(736,280)"/>
<path d="M0 0 C0.33 0.66 0.66 1.32 1 2 C0.67 2.66 0.34 3.32 0 4 C0.66 4.33 1.32 4.66 2 5 C0.8553125 5.6496875 0.8553125 5.6496875 -0.3125 6.3125 C-2.9516134 7.81855168 -2.9516134 7.81855168 -4.5625 9.625 C-6.29779613 11.28484848 -7.66471604 11.59736483 -10 12 C-8.52278578 8.54798361 -6.56205999 6.35038064 -3.875 3.75 C-3.15054687 3.04359375 -2.42609375 2.3371875 -1.6796875 1.609375 C-1.12539063 1.07828125 -0.57109375 0.5471875 0 0 Z " fill="#676767" transform="translate(344,16)"/>
<path d="M0 0 C3.30857135 2.98490676 3.85274525 5.69779468 5 10 C5.54492546 11.23705828 6.1072501 12.46661221 6.6875 13.6875 C8 17 8 17 7.6875 19.4375 C7.460625 19.953125 7.23375 20.46875 7 21 C4.07181744 16.7461646 2.94957102 12.63840454 1.8125 7.6875 C1.63525391 6.94693359 1.45800781 6.20636719 1.27539062 5.44335938 C0.84269047 3.63069658 0.42029284 1.81557973 0 0 Z " fill="#888888" transform="translate(728,258)"/>
<path d="M0 0 C5.3850865 5.3850865 5.62844486 10.68420739 6 18 C3.1277127 16.56385635 3.02988783 15.02529549 2 12 C0.79903332 7.8541972 0 4.35211588 0 0 Z " fill="#888888" transform="translate(21,504)"/>
<path d="M0 0 C0.66 0.33 1.32 0.66 2 1 C-1.88004209 5.83283349 -5.06991645 9.68582106 -11 12 C-9.49650623 8.33213607 -7.36271208 6.31089607 -4.375 3.75 C-3.14910156 2.69039062 -3.14910156 2.69039062 -1.8984375 1.609375 C-1.27195313 1.07828125 -0.64546875 0.5471875 0 0 Z " fill="#727272" transform="translate(188,46)"/>
<path d="M0 0 C1.1875 1.625 1.1875 1.625 2 4 C-0.19512195 9.59756098 -0.19512195 9.59756098 -3 11 C-3.66 11.99 -4.32 12.98 -5 14 C-4.53411505 8.29290936 -3.06242216 4.84060277 0 0 Z M2 3 C5 4 5 4 5 4 Z " fill="#767676" transform="translate(333,28)"/>
<path d="M0 0 C1.93166016 0.01740234 1.93166016 0.01740234 3.90234375 0.03515625 C5.19269531 0.04417969 6.48304688 0.05320313 7.8125 0.0625 C8.81152344 0.07410156 9.81054688 0.08570313 10.83984375 0.09765625 C7.63973987 1.91104845 4.70700532 2.61979599 1.08984375 3.22265625 C0.105 3.39023437 -0.87984375 3.5578125 -1.89453125 3.73046875 C-2.6421875 3.85164062 -3.38984375 3.9728125 -4.16015625 4.09765625 C-4.16015625 -0.03178644 -4.14653035 0.12813753 0 0 Z " fill="#F1F1F1" transform="translate(369.16015625,-0.09765625)"/>
<path d="M0 0 C0 0.66 0 1.32 0 2 C-0.639375 2.28875 -1.27875 2.5775 -1.9375 2.875 C-4.15206079 3.82823451 -4.15206079 3.82823451 -5 6 C-9.29 6 -13.58 6 -18 6 C-18 5.67 -18 5.34 -18 5 C-16.64455078 4.70996094 -16.64455078 4.70996094 -15.26171875 4.4140625 C-14.08222656 4.15367187 -12.90273438 3.89328125 -11.6875 3.625 C-10.51574219 3.36976563 -9.34398437 3.11453125 -8.13671875 2.8515625 C-5.11736605 2.03186276 -3.04615406 0 0 0 Z " fill="#CECECE" transform="translate(573,762)"/>
<path d="M0 0 C0.66 0.33 1.32 0.66 2 1 C-6.72324723 6.80073801 -6.72324723 6.80073801 -12 8 C-14.171875 7.5390625 -14.171875 7.5390625 -16 7 C-13.3789879 5.80293183 -10.75385304 4.61711354 -8.125 3.4375 C-7.00544922 2.92413086 -7.00544922 2.92413086 -5.86328125 2.40039062 C-3.93450668 1.54026143 -1.9688967 0.76383202 0 0 Z " fill="#6B6B6B" transform="translate(549,326)"/>
<path d="M0 0 C0.6875 1.8125 0.6875 1.8125 1 4 C-0.25 5.75 -0.25 5.75 -2 7 C-2.99 7 -3.98 7 -5 7 C-5.33 7.99 -5.66 8.98 -6 10 C-7.32 9.67 -8.64 9.34 -10 9 C-8.63875 8.1646875 -8.63875 8.1646875 -7.25 7.3125 C-4.15546609 5.1106201 -2.20718532 3.05610275 0 0 Z " fill="#BCBCBC" transform="translate(583,752)"/>
<path d="M0 0 C0.33 0.99 0.66 1.98 1 3 C-0.0725 3.7425 -1.145 4.485 -2.25 5.25 C-5.10884102 7.28540202 -7.60795785 9.41659448 -10 12 C-8.73050758 7.810675 -4.99190297 0 0 0 Z " fill="#828282" transform="translate(22,92)"/>
<path d="M0 0 C0.66 0 1.32 0 2 0 C2.86772029 2.07772471 3.71873619 4.16243177 4.5625 6.25 C5.03816406 7.41015625 5.51382813 8.5703125 6.00390625 9.765625 C6.95770524 12.86266644 7.20983356 14.07321701 6 17 C5.18167278 15.10667466 4.37057732 13.21022267 3.5625 11.3125 C3.11003906 10.25675781 2.65757813 9.20101562 2.19140625 8.11328125 C1.14552545 5.38027471 0.46479252 2.87957663 0 0 Z " fill="#969696" transform="translate(93,637)"/>
<path d="M0 0 C1 2 1 2 0.0625 5.125 C-0.288125 6.07375 -0.63875 7.0225 -1 8 C-1.66 8 -2.32 8 -3 8 C-3.66 9.65 -4.32 11.3 -5 13 C-5.68359375 11.296875 -5.68359375 11.296875 -6 9 C-4.78515625 6.640625 -4.78515625 6.640625 -3.0625 4.25 C-2.49660156 3.45078125 -1.93070313 2.6515625 -1.34765625 1.828125 C-0.90292969 1.22484375 -0.45820312 0.6215625 0 0 Z " fill="#BABABA" transform="translate(737,498)"/>
<path d="M0 0 C4.29 0 8.58 0 13 0 C13.33 1.32 13.66 2.64 14 4 C9.38 3.01 4.76 2.02 0 1 C0 0.67 0 0.34 0 0 Z " fill="#E0E0E0" transform="translate(402,0)"/>
<path d="M0 0 C0.65234375 1.734375 0.65234375 1.734375 1 4 C0.00390625 6.140625 0.00390625 6.140625 -1.4375 8.25 C-1.91058594 8.95640625 -2.38367188 9.6628125 -2.87109375 10.390625 C-3.24363281 10.92171875 -3.61617187 11.4528125 -4 12 C-5.27351308 9.45297384 -4.80191925 8.5717055 -4.0625 5.875 C-3.86785156 5.15054688 -3.67320312 4.42609375 -3.47265625 3.6796875 C-3.31667969 3.12539063 -3.16070313 2.57109375 -3 2 C-2.01 2 -1.02 2 0 2 C0 1.34 0 0.68 0 0 Z " fill="#828383" transform="translate(727,514)"/>
<path d="M0 0 C0.68359375 1.734375 0.68359375 1.734375 1 4 C-0.21484375 6.140625 -0.21484375 6.140625 -1.9375 8.25 C-2.50339844 8.95640625 -3.06929688 9.6628125 -3.65234375 10.390625 C-4.31943359 11.18726563 -4.31943359 11.18726563 -5 12 C-5 8.88772805 -4.54372951 6.05847848 -4 3 C-3.01 2.67 -2.02 2.34 -1 2 C-0.67 1.34 -0.34 0.68 0 0 Z " fill="#858585" transform="translate(293,344)"/>
<path d="M0 0 C2 1 2 1 3.125 4.0625 C4.19682285 8.09858291 4.1459001 11.84184728 4 16 C1.72525723 12.58788584 1.43370356 10.3431471 0.875 6.3125 C0.70742187 5.13300781 0.53984375 3.95351563 0.3671875 2.73828125 C0.24601562 1.83464844 0.12484375 0.93101562 0 0 Z " fill="#7A7A7A" transform="translate(103,661)"/>
<path d="M0 0 C0.99 0.33 1.98 0.66 3 1 C4.47666292 4.49029418 4.07164685 8.27436386 4 12 C1.49484216 9.49484216 0.94900914 7.38931835 0 4 C0 2.68 0 1.36 0 0 Z " fill="#969696" transform="translate(17,492)"/>
<path d="M0 0 C1.15006091 3.37299744 0.85199953 5.34853215 -0.3125 8.6875 C-0.57675781 9.47511719 -0.84101562 10.26273437 -1.11328125 11.07421875 C-2 13 -2 13 -4 14 C-3.71715982 12.22773547 -3.42339502 10.457212 -3.125 8.6875 C-2.96257813 7.70136719 -2.80015625 6.71523438 -2.6328125 5.69921875 C-2 3 -2 3 0 0 Z " fill="#B7B7B7" transform="translate(754,458)"/>
<path d="M0 0 C3.13269705 3.13269705 3.05494397 5.97328423 3.0625 10.25 C3.041875 11.4875 3.02125 12.725 3 14 C2.67 12.68 2.34 11.36 2 10 C1.34 10 0.68 10 0 10 C0 6.7 0 3.4 0 0 Z " fill="#D1D1D1" transform="translate(3,422)"/>
<path d="M0 0 C0.33 0.66 0.66 1.32 1 2 C-2.3 2.66 -5.6 3.32 -9 4 C-6.6134817 -0.77303659 -4.94931567 -1.81474908 0 0 Z " fill="#3B3B3B" transform="translate(113,83)"/>
<path d="M0 0 C0 0.66 0 1.32 0 2 C-0.99 2.495 -0.99 2.495 -2 3 C-1.67 3.66 -1.34 4.32 -1 5 C-5.21015871 5.95685425 -7.25712373 6.13181214 -11 4 C-9.5437455 3.32880451 -8.08492133 2.66318193 -6.625 2 C-5.81289062 1.62875 -5.00078125 1.2575 -4.1640625 0.875 C-2 0 -2 0 0 0 Z " fill="#686868" transform="translate(126,399)"/>
<path d="M0 0 C1.07310858 3.27185553 0.89263102 5.42947592 0.0625 8.75 C-0.22947266 9.94882812 -0.22947266 9.94882812 -0.52734375 11.171875 C-0.68332031 11.77515625 -0.83929687 12.3784375 -1 13 C-1.66 13 -2.32 13 -3 13 C-2.52060632 8.28596212 -2.03165952 4.33420699 0 0 Z " fill="#AFAFAF" transform="translate(760,439)"/>
<path d="M0 0 C-1.72290605 0.70304222 -3.45367466 1.38683491 -5.1875 2.0625 C-6.63189453 2.63677734 -6.63189453 2.63677734 -8.10546875 3.22265625 C-11.20934675 4.05622133 -12.94919117 3.88679818 -16 3 C-11.08294543 0.13171817 -5.53605896 -1.7423757 0 0 Z " fill="#6B6B6B" transform="translate(108,408)"/>
<path d="M0 0 C0.99 0.33 1.98 0.66 3 1 C4.28317892 4.84953676 4.06643637 7.94738135 4 12 C2.09681116 9.14521674 1.5380901 7.58058692 0.875 4.3125 C0.70742188 3.50425781 0.53984375 2.69601562 0.3671875 1.86328125 C0.24601563 1.24839844 0.12484375 0.63351562 0 0 Z " fill="#747474" transform="translate(759,348)"/>
<path d="M0 0 C0.99 0.495 0.99 0.495 2 1 C2 1.66 2 2.32 2 3 C2.99 3.33 3.98 3.66 5 4 C5.33 5.98 5.66 7.96 6 10 C2.46413986 6.82679218 0.41421969 4.83256305 0 0 Z " fill="#828282" transform="translate(332,349)"/>
<path d="M0 0 C0.99 0.33 1.98 0.66 3 1 C3.96070434 3.88211302 4.10581883 5.69850044 4.0625 8.6875 C4.05347656 9.49574219 4.04445312 10.30398437 4.03515625 11.13671875 C4.02355469 11.75160156 4.01195312 12.36648437 4 13 C2.42445965 10.11371599 1.53723627 7.46657616 0.875 4.25 C0.70742187 3.45078125 0.53984375 2.6515625 0.3671875 1.828125 C0.24601563 1.22484375 0.12484375 0.6215625 0 0 Z " fill="#CACACA" transform="translate(134,107)"/>
<path d="M0 0 C0 0.66 0 1.32 0 2 C-2.68896615 4.68896615 -4.41631104 4.98855512 -8.1875 5.0625 C-9.115625 5.041875 -10.04375 5.02125 -11 5 C-8.12934225 2.12934225 -4.13678472 0 0 0 Z " fill="#656565" transform="translate(286,399)"/>
<path d="M0 0 C3.11019741 1.55509871 3.69411606 3.85400688 5 7 C5.1875 10.375 5.1875 10.375 5 13 C4.34 12.67 3.68 12.34 3 12 C2.1484375 9.27734375 2.1484375 9.27734375 1.375 5.9375 C0.98441406 4.28041016 0.98441406 4.28041016 0.5859375 2.58984375 C0.39257812 1.73519531 0.19921875 0.88054687 0 0 Z " fill="#989898" transform="translate(745,306)"/>
<path d="M0 0 C-3.60957611 3.2910841 -6.12637153 4.54663921 -11 5 C-8.10998474 1.78887193 -4.47884754 -2.23942377 0 0 Z " fill="#BEBEBE" transform="translate(434,199)"/>
<path d="M0 0 C0.66 0.33 1.32 0.66 2 1 C0.35 2.98 -1.3 4.96 -3 7 C-4.32 6.67 -5.64 6.34 -7 6 C-4.69 4.02 -2.38 2.04 0 0 Z " fill="#727272" transform="translate(512,346)"/>
<path d="M0 0 C1.258125 -0.04125 2.51625 -0.0825 3.8125 -0.125 C4.52019531 -0.14820313 5.22789062 -0.17140625 5.95703125 -0.1953125 C8 0 8 0 11 2 C8.36 2.66 5.72 3.32 3 4 C3.33 3.01 3.66 2.02 4 1 C2.68 0.67 1.36 0.34 0 0 Z " fill="#CBCBCB" transform="translate(555,320)"/>
<path d="M0 0 C0 0.66 0 1.32 0 2 C-1.65532623 3.01866229 -3.32260138 4.01810813 -5 5 C-5.33 5.66 -5.66 6.32 -6 7 C-6.66 6.67 -7.32 6.34 -8 6 C-8 5.01 -8 4.02 -8 3 C-2.25 0 -2.25 0 0 0 Z " fill="#626262" transform="translate(514,48)"/>
<path d="M0 0 C2 1.5 2 1.5 4 4 C4.35800135 6.75871627 4.18660165 9.20097524 4 12 C2.09681116 9.14521674 1.5380901 7.58058692 0.875 4.3125 C0.70742188 3.50425781 0.53984375 2.69601563 0.3671875 1.86328125 C0.24601562 1.24839844 0.12484375 0.63351563 0 0 Z " fill="#C4C4C4" transform="translate(453,37)"/>
<path d="M0 0 C0 3.17370278 -0.30933342 4.3794668 -2 7 C-4.125 8.25 -4.125 8.25 -6 9 C-4.68775452 5.06326356 -3.08089673 2.77280706 0 0 Z " fill="#ACAEAD" transform="translate(704,552)"/>
<path d="M0 0 C0.33 0.66 0.66 1.32 1 2 C-0.65909182 6.10406925 -2.21704034 8.65195608 -6 11 C-4.18690997 7.22272911 -2.0926741 3.62730178 0 0 Z " fill="#939393" transform="translate(132,349)"/>
<path d="M0 0 C2 1 2 1 3.1875 3.8125 C3.96421451 6.85961076 4.10096399 8.13749363 3 11 C0.29417212 7.16674383 -0.32613618 4.67461851 0 0 Z " fill="#6D6D6D" transform="translate(724,247)"/>
<path d="M0 0 C1 2 1 2 0.3125 4.4375 C-1.10829685 7.21143671 -2.39746148 8.35172561 -5 10 C-3.84414715 6.08788267 -2.64465038 3.1254959 0 0 Z " fill="#929292" transform="translate(617,682)"/>
<path d="M0 0 C0.66 0.33 1.32 0.66 2 1 C0.35 2.65 -1.3 4.3 -3 6 C-4.32 5.34 -5.64 4.68 -7 4 C-1.7265625 0.77734375 -1.7265625 0.77734375 0 0 Z " fill="#585858" transform="translate(40,78)"/>
<path d="M0 0 C0.33 0.66 0.66 1.32 1 2 C1.66 2 2.32 2 3 2 C3.33 5.3 3.66 8.6 4 12 C1.21366885 7.82050327 0 5.06624674 0 0 Z " fill="#B5B5B5" transform="translate(292,66)"/>
<path d="M0 0 C0.66 0.33 1.32 0.66 2 1 C1.3503125 1.5878125 1.3503125 1.5878125 0.6875 2.1875 C-1.26366224 4.28319278 -2.59010162 6.51589333 -4 9 C-4.8125 7.3125 -4.8125 7.3125 -5 5 C-2.5625 2.25 -2.5625 2.25 0 0 Z " fill="#8F8F8F" transform="translate(494,60)"/>
<path d="M0 0 C2.97 0 5.94 0 9 0 C9 0.66 9 1.32 9 2 C9.66 2.33 10.32 2.66 11 3 C6.72213252 2.50639991 3.90432869 1.95216435 0 0 Z " fill="#515151" transform="translate(49,379)"/>
<path d="M0 0 C3.63 0.33 7.26 0.66 11 1 C11 1.33 11 1.66 11 2 C6.545 2.495 6.545 2.495 2 3 C2 2.34 2 1.68 2 1 C1.34 0.67 0.68 0.34 0 0 Z " fill="#4F4F4F" transform="translate(80,72)"/>
<path d="M0 0 C2.31 0.66 4.62 1.32 7 2 C7.33 3.65 7.66 5.3 8 7 C6.66382648 6.02471263 5.3311249 5.04466681 4 4.0625 C3.2575 3.51722656 2.515 2.97195312 1.75 2.41015625 C1.1725 1.94480469 0.595 1.47945312 0 1 C0 0.67 0 0.34 0 0 Z " fill="#C5C5C5" transform="translate(275,47)"/>
</svg>
