<?xml version="1.0" encoding="UTF-8" standalone="no"?><!DOCTYPE svg PUBLIC "-//W3C//DTD SVG 1.1//EN" "http://www.w3.org/Graphics/SVG/1.1/DTD/svg11.dtd"><svg width="100%" height="100%" viewBox="0 0 2350 2339" version="1.1" xmlns="http://www.w3.org/2000/svg" xmlns:xlink="http://www.w3.org/1999/xlink" xml:space="preserve" xmlns:serif="http://www.serif.com/" style="fill-rule:evenodd;clip-rule:evenodd;stroke-linejoin:round;stroke-miterlimit:2;"><g><path d="M0,1169.44l0.556,1169.44l2349.44,-0l0,-2338.89l-2350,-0l0,1169.44Zm1482.22,-822.222c21.667,4.445 83.889,24.445 138.334,45l98.888,36.667l116.667,-22.778c126.667,-25 157.222,-27.222 203.333,-13.889c52.778,15 60,19.445 80.556,51.667c11.667,17.222 35.556,45.555 53.333,62.778l33.334,32.222l-3.334,173.333c-3.889,188.334 -6.111,247.778 -14.444,354.445c-2.778,38.333 -6.667,100.555 -8.889,138.889c-3.889,92.222 -25,158.888 -69.444,220.555c-41.667,58.333 -160.556,96.111 -301.667,96.111c-36.667,0 -65,1.111 -63.889,2.778c2.778,2.222 28.889,9.444 95.556,27.222c15.555,3.889 51.666,11.667 78.888,17.222c27.778,5 53.334,10.556 57.778,11.667c15,4.445 -2.778,14.445 -42.222,22.778c-31.111,6.667 -47.222,6.667 -90.556,1.667c-71.111,-8.334 -182.777,-26.667 -188.888,-30.556c-6.667,-3.889 -3.889,-17.778 16.666,-83.333c19.445,-60.556 47.222,-230.556 49.445,-300c0.555,-18.334 5,-59.445 8.889,-91.667c4.444,-32.222 9.444,-87.778 11.666,-123.333c3.334,-60.556 2.778,-67.223 -11.666,-115l-15.556,-50l12.222,-37.778c6.111,-21.111 11.667,-40.556 11.667,-43.333c-0,-11.112 -35.556,29.444 -50.556,58.333c-8.889,16.667 -23.889,42.778 -33.333,57.778c-37.222,60.555 -46.667,106.111 -71.667,356.111c-22.222,217.222 -30.555,255.555 -62.222,283.889c-33.333,30.555 -163.333,86.111 -256.667,110.555c-43.333,11.111 -48.333,13.334 -35,16.667c17.778,4.444 127.778,-0 147.223,-5.556c21.666,-7.222 13.333,6.667 -16.667,25.556c-16.111,10.555 -41.667,30 -56.667,42.778l-27.222,24.444l-48.333,-2.222c-45,-1.667 -50.556,-3.333 -70,-18.889c-12.222,-9.444 -27.222,-20 -33.889,-23.889c-16.667,-8.889 -31.111,-38.333 -43.333,-88.889c-9.445,-37.778 -9.445,-50.555 -3.334,-147.222c10,-155.556 16.667,-226.667 26.667,-292.222c5.555,-35.556 9.444,-93.889 9.444,-150c0.556,-85.556 -0.555,-93.889 -13.889,-127.778c-11.666,-30.556 -13.333,-39.444 -8.888,-60c3.333,-12.778 3.888,-25.556 1.666,-27.222c-7.778,-7.778 -22.778,7.778 -31.666,32.222c-4.445,13.333 -18.889,45.556 -32.223,71.667c-33.333,67.777 -43.333,106.666 -56.111,219.444c-19.444,166.667 -38.889,388.333 -38.889,437.778c0,30 -13.333,58.889 -38.889,86.111c-25,25.556 -52.222,37.778 -102.777,45.556c-24.445,3.888 -54.445,9.444 -66.667,12.777l-22.222,5.556l21.666,7.222c11.667,4.445 50,10 85,12.778c35,2.778 65,6.111 66.667,7.778c10.556,11.111 -29.444,22.222 -113.333,31.666c-47.778,5 -100.556,-2.777 -143.889,-21.666c-21.111,-9.445 -24.445,-13.889 -32.778,-40.556c-23.333,-79.444 -27.778,-116.111 -27.778,-235c0,-111.111 3.889,-172.222 22.778,-351.111c12.778,-122.222 3.889,-227.778 -21.667,-261.667c-6.111,-7.777 -22.777,-9.444 -17.777,-1.111c1.666,2.778 1.666,20.556 -0.556,38.889c-2.778,27.778 -7.778,38.333 -30,67.778c-38.333,50.555 -56.667,112.222 -74.444,248.889c-10.556,79.444 -14.445,129.444 -16.667,211.666c-3.333,95.556 -23.333,128.334 -84.444,136.112c-16.667,1.666 -31.112,5.555 -32.778,7.777c-3.889,6.667 77.778,66.667 90,66.667c2.778,-0 12.222,6.111 21.111,13.889l16.667,13.333l-23.889,0.556c-24.445,-0 -148.889,-38.334 -172.223,-53.334c-17.777,-11.666 -32.777,-37.777 -45.555,-80c-26.111,-88.888 -41.667,-332.777 -26.667,-422.777c4.445,-28.889 4.445,-42.223 0,-52.223c-6.111,-13.333 -23.333,-19.444 -23.333,-8.333c-0,10 -14.445,6.111 -27.222,-7.778c-8.889,-9.444 -13.334,-22.777 -15.556,-46.111c-3.333,-37.778 8.889,-73.889 38.889,-116.666c10.556,-15 23.333,-36.667 28.889,-48.889c6.111,-12.223 26.111,-47.778 45.555,-79.445c19.445,-31.111 35,-58.889 35,-61.111c0,-2.222 11.112,-18.333 25,-35.555c26.667,-33.889 51.112,-49.445 112.778,-70.556c42.778,-14.444 66.111,-14.444 112.222,-0.556c20,6.112 52.778,11.667 72.778,12.223c43.889,0.555 74.445,-12.223 172.778,-71.111c98.333,-59.445 96.111,-58.889 245.556,-56.667l128.333,1.667l54.444,-18.334c29.445,-10 86.111,-26.666 125,-37.222c38.889,-10.556 81.667,-22.778 95.556,-27.222c32.778,-10.556 47.222,-10.556 93.333,-0.556Zm661.667,1305c23.333,12.222 54.444,50 62.222,75c7.222,24.445 2.222,54.445 -18.333,101.667c-10.556,24.444 -24.445,42.222 -28.889,37.222c-0.556,-1.111 -0,-16.111 1.667,-32.778c3.888,-31.666 -11.112,-94.444 -22.223,-94.444c-2.777,-0 -5,15 -5,33.333c0,45 -9.444,65 -44.444,95.556c-82.222,71.666 -239.445,93.889 -422.222,59.444c-211.667,-40.555 -262.778,-63.333 -281.111,-125c-8.334,-30 -8.334,-30.555 5,-53.889c28.888,-48.333 73.333,-73.889 147.222,-82.777c45.555,-5.556 53.333,-5 137.222,12.777c78.333,16.111 97.778,18.334 167.222,17.223c81.667,-1.112 147.222,-11.667 208.889,-33.889c52.222,-18.889 70,-21.111 92.778,-9.445Z" style="fill:#fff;fill-rule:nonzero;stroke:#fff;stroke-width:5.56px;"/></g></svg>